<?xml version="1.0" encoding="UTF-8" standalone="no"?>
<!DOCTYPE svg PUBLIC "-//W3C//DTD SVG 1.1//EN" "http://www.w3.org/Graphics/SVG/1.1/DTD/svg11.dtd">
<svg width="100%" height="100%" viewBox="0 0 292 702" version="1.1" xmlns="http://www.w3.org/2000/svg" xmlns:xlink="http://www.w3.org/1999/xlink" xml:space="preserve" xmlns:serif="http://www.serif.com/" style="fill-rule:evenodd;clip-rule:evenodd;stroke-linejoin:round;stroke-miterlimit:2;">
    <g transform="matrix(0.75,0,0,0.75,0,0)">
        <g id="Artboard1" transform="matrix(0.956522,0,0,0.981495,0,0)">
            <rect x="0" y="0" width="406.577" height="953.036" style="fill:none;"/>
            <clipPath id="_clip1">
                <rect x="0" y="0" width="406.577" height="953.036"/>
            </clipPath>
            <g clip-path="url(#_clip1)">
                <g transform="matrix(-1.05521,0,0,0.971962,1494.67,-898.028)">
                    <path d="M1031.18,923.933L1416.49,923.933L1416.49,1904.46L1056.51,1904.46L1031.18,1877.66L1031.18,923.933ZM1414.56,925.975L1033.11,925.975C1033.11,957.786 1033.11,1723.37 1033.11,1876.81C1033.11,1876.81 1057.31,1902.42 1057.31,1902.42C1057.31,1902.42 1394.16,1902.42 1414.56,1902.42L1414.56,925.975Z"/>
                </g>
            </g>
        </g>
    </g>
</svg>
