<?xml version="1.0" encoding="UTF-8" standalone="no"?>
<!DOCTYPE svg PUBLIC "-//W3C//DTD SVG 1.1//EN" "http://www.w3.org/Graphics/SVG/1.1/DTD/svg11.dtd">
<svg width="100%" height="100%" viewBox="0 0 180 27" version="1.1" xmlns="http://www.w3.org/2000/svg" xmlns:xlink="http://www.w3.org/1999/xlink" xml:space="preserve" xmlns:serif="http://www.serif.com/" style="fill-rule:evenodd;clip-rule:evenodd;stroke-linejoin:round;stroke-miterlimit:2;">
    <g transform="matrix(0.75,0,0,0.75,0,0)">
        <g transform="matrix(0.977741,0,0,0.977741,-5578.79,-667.505)">
            <path d="M5708.99,711.486L5705.79,711.486L5705.79,705.135L5710.13,705.135L5710.13,710.389L5722.01,710.389L5722.01,700.246L5710.64,700.246L5708.99,698.647L5708.99,697.048L5707.39,697.048L5705.79,695.403L5705.79,687.59L5707.39,685.991L5708.99,685.991L5708.99,684.346L5710.64,682.747L5721.46,682.747L5723.11,684.346L5723.11,685.991L5726.35,685.991L5726.35,692.342L5722.01,692.342L5722.01,687.087L5710.13,687.087L5710.13,695.906L5721.46,695.906L5723.11,697.55L5723.11,699.15L5724.71,699.15L5726.35,700.794L5726.35,709.887L5724.71,711.486L5723.11,711.486L5723.11,713.085L5721.46,714.73L5710.64,714.73L5708.99,713.085L5708.99,711.486Z" style="fill-rule:nonzero;"/>
        </g>
        <g transform="matrix(0.977741,0,0,0.977741,-5578.79,-667.505)">
            <path d="M5742.12,714.73L5737.78,714.73L5737.78,682.747L5742.12,682.747L5742.12,695.906L5753.99,695.906L5753.99,682.747L5758.34,682.747L5758.34,714.73L5753.99,714.73L5753.99,700.246L5742.12,700.246L5742.12,714.73Z" style="fill-rule:nonzero;"/>
        </g>
        <g transform="matrix(0.977741,0,0,0.977741,-5578.79,-667.505)">
            <path d="M5769.76,714.73L5769.76,687.59L5771.36,685.991L5772.96,685.991L5772.96,684.346L5774.6,682.747L5785.43,682.747L5787.07,684.346L5787.07,685.991L5788.67,685.991L5790.32,687.59L5790.32,714.73L5785.98,714.73L5785.98,701.525L5774.1,701.525L5774.1,714.73L5769.76,714.73ZM5774.1,697.185L5785.98,697.185L5785.98,687.087L5774.1,687.087L5774.1,697.185Z" style="fill-rule:nonzero;"/>
        </g>
        <g transform="matrix(0.977741,0,0,0.977741,-5578.79,-667.505)">
            <path d="M5801.74,714.73L5801.74,682.701L5817.46,682.701L5819.06,684.346L5819.06,685.945L5820.66,685.945L5822.3,687.59L5822.3,696.682L5820.66,698.281L5819.06,698.281L5819.06,699.881L5817.46,701.525L5806.08,701.525L5806.08,714.73L5801.74,714.73ZM5806.08,687.042L5806.08,697.185L5817.96,697.185L5817.96,687.042L5806.08,687.042Z" style="fill-rule:nonzero;"/>
        </g>
        <g transform="matrix(0.977741,0,0,0.977741,-5578.79,-667.505)">
            <path d="M5833.72,714.73L5833.72,682.747L5854.28,682.747L5854.28,687.087L5838.06,687.087L5838.06,695.906L5852.09,695.906L5852.09,700.246L5838.06,700.246L5838.06,710.389L5854.28,710.389L5854.28,714.73L5833.72,714.73Z" style="fill-rule:nonzero;"/>
        </g>
        <g transform="matrix(0.977741,0,0,0.977741,-5578.79,-667.505)">
            <rect x="5865.71" y="714.73" width="20.56" height="4.341" style="fill-rule:nonzero;"/>
        </g>
        <g transform="matrix(0.977741,0,0,0.977741,-5578.79,-667.505)">
            <path d="M5902.94,682.747L5902.94,710.389L5919.16,710.389L5919.16,714.73L5898.6,714.73L5898.6,682.747L5902.94,682.747Z" style="fill-rule:nonzero;"/>
        </g>
        <g transform="matrix(0.977741,0,0,0.977741,-5578.79,-667.505)">
            <path d="M5929.67,709.887L5929.67,702.074L5931.27,700.429L5932.87,700.429L5932.87,698.83L5934.52,697.185L5945.89,697.185L5945.89,687.087L5934.01,687.087L5934.01,692.342L5929.67,692.342L5929.67,685.991L5932.87,685.991L5932.87,684.346L5934.52,682.747L5945.34,682.747L5946.99,684.346L5946.99,685.991L5948.59,685.991L5950.23,687.59L5950.23,696.682L5948.59,698.327L5946.99,698.327L5946.99,699.926L5945.34,701.525L5934.01,701.525L5934.01,710.389L5950.23,710.389L5950.23,714.73L5932.87,714.73L5932.87,711.486L5931.27,711.486L5929.67,709.887Z" style="fill-rule:nonzero;"/>
        </g>
    </g>
</svg>
