<?xml version="1.0" encoding="UTF-8" standalone="no"?>
<!DOCTYPE svg PUBLIC "-//W3C//DTD SVG 1.1//EN" "http://www.w3.org/Graphics/SVG/1.1/DTD/svg11.dtd">
<svg width="100%" height="100%" viewBox="0 0 210 42" version="1.1" xmlns="http://www.w3.org/2000/svg" xmlns:xlink="http://www.w3.org/1999/xlink" xml:space="preserve" xmlns:serif="http://www.serif.com/" style="fill-rule:evenodd;clip-rule:evenodd;stroke-linejoin:round;stroke-miterlimit:2;">
    <g transform="matrix(0.75,0,0,0.75,0,0)">
        <g transform="matrix(0.764979,0,0,0.764979,84.4425,1.07786)">
            <path d="M0,70.162L1.993,68.169L1.993,68.17L23.599,46.564L25.591,44.571C26.493,43.669 27,42.446 27,41.17L27,40.341L27.009,40.332L27.009,28.993C27.009,27.716 26.502,26.493 25.6,25.591L23.607,23.598L23.608,23.598L2.002,1.992L2.002,1.993L0.009,0C-0.893,-0.902 -2.117,-1.409 -3.392,-1.409L-14.732,-1.409L-17.513,1.372L-11.139,7.746L-4.329,7.773C-3.695,7.776 -3.087,8.029 -2.638,8.477L17.122,28.238C17.571,28.687 17.824,29.295 17.827,29.929L17.842,33.931L17.818,40.233C17.815,40.868 17.562,41.475 17.114,41.924L-2.647,61.684C-3.096,62.133 -3.704,62.387 -4.339,62.389L-11.148,62.415L-17.522,68.79L-14.741,71.571L-3.401,71.571C-2.126,71.571 -0.902,71.064 0,70.162" style="fill-rule:nonzero;"/>
        </g>
        <g transform="matrix(0.764979,0,0,0.764979,13.404,1.07786)">
            <path d="M0,70.162L1.993,68.169L1.993,68.17L23.599,46.564L25.591,44.571C26.493,43.669 27,42.446 27,41.17L27,40.341L27.009,40.332L27.009,28.993C27.009,27.716 26.502,26.493 25.6,25.591L23.608,23.598L2.002,1.992L2.002,1.993L0.009,0C-0.893,-0.902 -2.117,-1.409 -3.392,-1.409L-14.732,-1.409L-17.513,1.372L-11.139,7.746L-4.329,7.773C-3.695,7.776 -3.087,8.029 -2.638,8.477L17.122,28.238C17.571,28.687 17.824,29.295 17.827,29.929L17.843,33.931L17.818,40.233C17.815,40.868 17.562,41.475 17.114,41.924L-2.647,61.684C-3.096,62.133 -3.704,62.387 -4.339,62.389L-11.148,62.415L-17.522,68.79L-14.741,71.571L-3.401,71.571C-2.126,71.571 -0.902,71.064 0,70.162" style="fill-rule:nonzero;"/>
        </g>
        <g transform="matrix(0.764979,0,0,0.764979,39.5216,1.07786)">
            <path d="M0,70.162L1.993,68.169L1.993,68.17L23.599,46.564L25.591,44.571C26.493,43.669 27,42.446 27,41.17L27,40.341L27.009,40.332L27.009,28.993C27.009,27.716 26.502,26.493 25.6,25.591L23.608,23.598L2.002,1.992L2.002,1.993L0.009,0C-0.893,-0.902 -2.117,-1.409 -3.392,-1.409L-14.732,-1.409L-17.513,1.372L-11.139,7.746L-4.329,7.773C-3.695,7.776 -3.087,8.029 -2.638,8.477L17.122,28.238C17.571,28.687 17.824,29.295 17.827,29.929L17.843,33.931L17.818,40.233C17.815,40.868 17.562,41.475 17.114,41.924L-2.647,61.684C-3.096,62.133 -3.704,62.387 -4.339,62.389L-11.148,62.415L-17.522,68.79L-14.741,71.571L-3.401,71.571C-2.126,71.571 -0.902,71.064 0,70.162" style="fill-rule:nonzero;"/>
        </g>
        <g transform="matrix(-0.764979,0,0,0.764979,195.557,1.07786)">
            <path d="M0,70.162L1.993,68.169L1.993,68.17L23.599,46.564L25.591,44.571C26.493,43.669 27,42.446 27,41.17L27,40.341L27.009,40.332L27.009,28.993C27.009,27.716 26.502,26.493 25.6,25.591L23.607,23.598L23.608,23.598L2.002,1.992L2.002,1.993L0.009,0C-0.893,-0.902 -2.117,-1.409 -3.392,-1.409L-14.732,-1.409L-17.513,1.372L-11.139,7.746L-4.329,7.773C-3.695,7.776 -3.087,8.029 -2.638,8.477L17.122,28.238C17.571,28.687 17.824,29.295 17.827,29.929L17.842,33.931L17.818,40.233C17.815,40.868 17.562,41.475 17.114,41.924L-2.647,61.684C-3.096,62.133 -3.704,62.387 -4.339,62.389L-11.148,62.415L-17.522,68.79L-14.741,71.571L-3.401,71.571C-2.126,71.571 -0.902,71.064 0,70.162" style="fill-rule:nonzero;"/>
        </g>
        <g transform="matrix(-0.764979,0,0,0.764979,266.596,1.07786)">
            <path d="M0,70.162L1.993,68.169L1.993,68.17L23.599,46.564L25.591,44.571C26.493,43.669 27,42.446 27,41.17L27,40.341L27.009,40.332L27.009,28.993C27.009,27.716 26.502,26.493 25.6,25.591L23.608,23.598L2.002,1.992L2.002,1.993L0.009,0C-0.893,-0.902 -2.117,-1.409 -3.392,-1.409L-14.732,-1.409L-17.513,1.372L-11.139,7.746L-4.329,7.773C-3.695,7.776 -3.087,8.029 -2.638,8.477L17.122,28.238C17.571,28.687 17.824,29.295 17.827,29.929L17.843,33.931L17.818,40.233C17.815,40.868 17.562,41.475 17.114,41.924L-2.647,61.684C-3.096,62.133 -3.704,62.387 -4.339,62.389L-11.148,62.415L-17.522,68.79L-14.741,71.571L-3.401,71.571C-2.126,71.571 -0.902,71.064 0,70.162" style="fill-rule:nonzero;"/>
        </g>
        <g transform="matrix(-0.764979,0,0,0.764979,240.478,1.07786)">
            <path d="M0,70.162L1.993,68.169L1.993,68.17L23.599,46.564L25.591,44.571C26.493,43.669 27,42.446 27,41.17L27,40.341L27.009,40.332L27.009,28.993C27.009,27.716 26.502,26.493 25.6,25.591L23.608,23.598L2.002,1.992L2.002,1.993L0.009,0C-0.893,-0.902 -2.117,-1.409 -3.392,-1.409L-14.732,-1.409L-17.513,1.372L-11.139,7.746L-4.329,7.773C-3.695,7.776 -3.087,8.029 -2.638,8.477L17.122,28.238C17.571,28.687 17.824,29.295 17.827,29.929L17.843,33.931L17.818,40.233C17.815,40.868 17.562,41.475 17.114,41.924L-2.647,61.684C-3.096,62.133 -3.704,62.387 -4.339,62.389L-11.148,62.415L-17.522,68.79L-14.741,71.571L-3.401,71.571C-2.126,71.571 -0.902,71.064 0,70.162" style="fill-rule:nonzero;"/>
        </g>
        <g transform="matrix(0.862616,0,0,0.862616,-4786.21,-253.162)">
            <path d="M5698.74,310.296L5700.66,308.37L5702.54,308.37L5702.54,306.497L5704.46,304.571L5717.14,304.571L5719.07,306.497L5719.07,308.37L5720.94,308.37L5722.82,310.243L5722.82,336.944L5713.29,336.944L5711.36,335.018L5711.36,333.145L5709.49,333.145L5707.62,331.272L5707.62,320.945L5709.49,319.072L5711.36,319.072L5711.36,317.146L5713.29,315.273L5717.73,315.273L5717.73,309.654L5703.82,309.654L5703.82,342.028L5717.73,342.028L5717.73,347.111L5702.54,347.111L5702.54,343.366L5700.66,343.366L5698.74,341.439L5698.74,310.296ZM5717.73,320.356L5712.7,320.356L5712.7,331.861L5717.73,331.861L5717.73,320.356Z" style="fill-rule:nonzero;"/>
        </g>
    </g>
</svg>
