<?xml version="1.0" encoding="UTF-8" standalone="no"?>
<!DOCTYPE svg PUBLIC "-//W3C//DTD SVG 1.1//EN" "http://www.w3.org/Graphics/SVG/1.1/DTD/svg11.dtd">
<svg width="100%" height="100%" viewBox="0 0 291 50" version="1.1" xmlns="http://www.w3.org/2000/svg" xmlns:xlink="http://www.w3.org/1999/xlink" xml:space="preserve" xmlns:serif="http://www.serif.com/" style="fill-rule:evenodd;clip-rule:evenodd;stroke-linejoin:round;stroke-miterlimit:2;">
    <g transform="matrix(0.75,0,0,0.75,0,0)">
        <g transform="matrix(-1.13405,0,0,0.969647,1581.39,-1247.14)">
            <rect x="1053.21" y="1286.18" width="341.254" height="68.066"/>
        </g>
        <g transform="matrix(1.02363,0,0,1.02363,-5806.57,-306.156)">
            <path d="M5739.42,335.657L5735.09,331.326L5739.42,326.995C5739.78,326.633 5739.99,326.143 5739.99,325.632L5739.99,320.623L5692.54,320.623L5692.54,342.027L5739.99,342.027L5739.99,337.019C5739.99,336.508 5739.78,336.018 5739.42,335.656L5739.42,335.657ZM5699.76,335.727L5699.76,334.476L5727.54,334.476C5728.04,334.476 5728.53,334.677 5728.89,335.035L5729.59,335.726L5699.76,335.726L5699.76,335.727ZM5728.89,327.616C5728.53,327.974 5728.05,328.175 5727.54,328.175L5699.76,328.175L5699.76,326.925L5729.59,326.925L5728.89,327.616L5728.89,327.616Z" style="fill:white;fill-rule:nonzero;"/>
        </g>
        <g transform="matrix(1.02363,0,0,1.02363,-5806.57,-306.156)">
            <path d="M5781.19,320.624L5781.19,335.727L5753.41,335.727C5752.9,335.727 5752.42,335.526 5752.06,335.167L5748.18,331.325L5748.18,320.623L5740.96,320.623L5740.96,334.476L5747.39,340.899C5748.11,341.622 5749.09,342.027 5750.11,342.027L5788.41,342.027L5788.41,320.623L5781.19,320.623L5781.19,320.624Z" style="fill:white;fill-rule:nonzero;"/>
        </g>
        <g transform="matrix(1.02363,0,0,1.02363,-5806.57,-306.156)">
            <path d="M5836.84,326.925L5836.84,320.624L5813.53,320.624L5813.53,334.477L5819.95,340.899C5820.67,341.622 5821.65,342.028 5822.68,342.028L5836.84,342.028L5836.84,335.727L5825.98,335.727C5825.47,335.727 5824.98,335.526 5824.62,335.167L5820.75,331.325L5820.75,326.925L5836.84,326.925L5836.84,326.925ZM5789.39,320.624L5789.39,326.925L5805.48,326.925L5805.48,331.326L5801.61,335.168C5801.25,335.526 5800.76,335.727 5800.25,335.727L5789.39,335.727L5789.39,342.028L5803.56,342.028C5804.58,342.028 5805.56,341.622 5806.28,340.9L5812.7,334.477L5812.7,320.624L5789.39,320.624L5789.39,320.624Z" style="fill:white;fill-rule:nonzero;"/>
        </g>
        <g transform="matrix(1.02363,0,0,1.02363,-5806.57,-306.156)">
            <path d="M5878.85,340.899L5885.27,334.477L5885.27,331.326L5878.05,331.326L5874.18,335.168C5873.81,335.526 5873.33,335.727 5872.82,335.727L5850.27,335.727C5849.76,335.727 5849.27,335.526 5848.91,335.168L5845.04,331.326L5845.04,320.624L5837.82,320.624L5837.82,334.477L5844.24,340.899C5844.96,341.622 5845.94,342.028 5846.96,342.028L5876.12,342.028C5877.14,342.028 5878.12,341.622 5878.84,340.899L5878.85,340.899Z" style="fill:white;fill-rule:nonzero;"/>
        </g>
        <g transform="matrix(1.02363,0,0,1.02363,-5806.57,-306.156)">
            <path d="M5927.27,321.753C5926.55,321.03 5925.57,320.624 5924.55,320.624L5886.24,320.624L5886.24,342.028L5933.69,342.028L5933.69,328.176L5927.27,321.753ZM5926.47,335.727L5893.47,335.727L5893.47,326.926L5921.24,326.926C5921.75,326.926 5922.24,327.127 5922.6,327.485L5926.47,331.326L5926.47,335.727Z" style="fill:white;fill-rule:nonzero;"/>
        </g>
        <g transform="matrix(1.02363,0,0,1.02363,-5806.57,-306.156)">
            <path d="M5935.23,327.49L5939.07,331.326L5935.23,335.162C5934.87,335.523 5934.67,336.013 5934.67,336.524L5934.67,342.027L5982.12,342.027L5982.12,335.726L5945.07,335.726L5945.76,335.035C5946.12,334.677 5946.61,334.477 5947.12,334.477L5970.47,334.477L5970.47,328.175L5947.12,328.175C5946.61,328.175 5946.12,327.974 5945.76,327.616L5945.07,326.925L5982.12,326.925L5982.12,320.623L5934.67,320.623L5934.67,326.126C5934.67,326.637 5934.87,327.127 5935.23,327.489L5935.23,327.49Z" style="fill:white;fill-rule:nonzero;"/>
        </g>
        <g transform="matrix(1.02363,0,0,1.02363,-5806.57,-306.156)">
            <path d="M5983.1,320.624L5983.1,342.028L5990.32,342.028L5990.32,334.476L6018.1,334.476C6018.61,334.477 6019.09,334.677 6019.45,335.035L6023.33,338.877L6023.33,342.027L6030.55,342.027L6030.55,337.018C6030.55,336.507 6030.35,336.017 6029.98,335.656L6025.65,331.325L6029.98,326.995C6030.35,326.633 6030.55,326.143 6030.55,325.632L6030.55,320.623L5983.1,320.623L5983.1,320.624ZM5990.32,326.925L6020.15,326.925L6019.45,327.616C6019.1,327.974 6018.61,328.175 6018.1,328.175L5990.32,328.175L5990.32,326.925L5990.32,326.925Z" style="fill:white;fill-rule:nonzero;"/>
        </g>
    </g>
</svg>
