<?xml version="1.0" encoding="UTF-8" standalone="no"?>
<!DOCTYPE svg PUBLIC "-//W3C//DTD SVG 1.1//EN" "http://www.w3.org/Graphics/SVG/1.1/DTD/svg11.dtd">
<svg viewBox="0 0 66 67" version="1.1" xmlns="http://www.w3.org/2000/svg" xmlns:xlink="http://www.w3.org/1999/xlink" xml:space="preserve" xmlns:serif="http://www.serif.com/" style="fill-rule:evenodd;clip-rule:evenodd;stroke-linejoin:round;stroke-miterlimit:2;">
    <g id="github---142-" serif:id="github-[#142]" transform="matrix(0.666667,0,0,0.666667,0,0)">
        <path d="M49.5,0C76.839,0 99,22.72 99,50.752C99,73.171 84.833,92.189 65.177,98.906C62.667,99.406 61.776,97.822 61.776,96.471C61.776,94.797 61.835,89.333 61.835,82.541C61.835,77.809 60.251,74.72 58.474,73.146C69.498,71.889 81.081,67.597 81.081,48.104C81.081,42.56 79.16,38.036 75.983,34.482C76.497,33.2 78.195,28.037 75.497,21.047C75.497,21.047 71.349,19.686 61.9,26.25C57.945,25.126 53.708,24.562 49.5,24.542C45.293,24.562 41.06,25.126 37.11,26.25C27.651,19.686 23.493,21.047 23.493,21.047C20.805,28.037 22.503,33.2 23.013,34.482C19.85,38.036 17.914,42.56 17.914,48.104C17.914,67.548 29.472,71.904 40.466,73.186C39.051,74.453 37.769,76.69 37.323,79.972C34.502,81.269 27.334,83.511 22.919,75.755C22.919,75.755 20.3,70.879 15.33,70.523C15.33,70.523 10.504,70.458 14.994,73.607C14.994,73.607 18.236,75.166 20.488,81.031C20.488,81.031 23.394,90.09 37.165,87.021C37.189,91.263 37.234,95.263 37.234,96.471C37.234,97.812 36.323,99.381 33.853,98.911C14.182,92.204 -0,73.176 -0,50.752C-0,22.72 22.166,0 49.5,0"/>
    </g>
</svg>
