<?xml version="1.0" encoding="UTF-8" standalone="no"?>
<!DOCTYPE svg PUBLIC "-//W3C//DTD SVG 1.1//EN" "http://www.w3.org/Graphics/SVG/1.1/DTD/svg11.dtd">
<svg width="100%" height="100%" viewBox="0 0 225 218" version="1.1" xmlns="http://www.w3.org/2000/svg" xmlns:xlink="http://www.w3.org/1999/xlink" xml:space="preserve" xmlns:serif="http://www.serif.com/" style="fill-rule:evenodd;clip-rule:evenodd;stroke-linejoin:round;stroke-miterlimit:2;">
    <g transform="matrix(0.75,0,0,0.75,-4.41181,1.33227e-13)">
        <g transform="matrix(1.61309,1.61309,1.61309,-1.61309,118.413,98.8341)">
            <path d="M-6.544,-2.995L1.123,-2.995L1.123,-2.426L-6.544,-2.426L-6.544,-2.995Z"/>
        </g>
        <g transform="matrix(-1.61309,1.61309,1.61309,1.61309,100.923,191.672)">
            <path d="M-6.544,2.426L1.123,2.426L1.123,2.995L-6.544,2.995L-6.544,2.426Z"/>
        </g>
        <g transform="matrix(-1.61309,1.61309,1.61309,1.61309,192.652,98.8341)">
            <path d="M-6.544,2.426L1.123,2.426L1.123,2.995L-6.544,2.995L-6.544,2.426Z"/>
        </g>
        <g transform="matrix(1.61309,1.61309,1.61309,-1.61309,210.142,191.672)">
            <path d="M-6.544,-2.995L1.123,-2.995L1.123,-2.426L-6.544,-2.426L-6.544,-2.995Z"/>
        </g>
        <g transform="matrix(-1.39687e-16,2.28125,2.28125,1.39687e-16,41.8151,158.304)">
            <path d="M-11.442,-0.285L0,-0.285L-0,0.285L-11.442,0.285L-11.442,-0.285Z"/>
        </g>
        <g transform="matrix(-1.39687e-16,2.28125,2.28125,1.39687e-16,269.25,158.304)">
            <path d="M-11.442,-0.285L0,-0.285L0,0.285L-11.442,0.285L-11.442,-0.285Z"/>
        </g>
        <g transform="matrix(2.28125,1.39687e-16,1.39687e-16,-2.28125,220.691,96.6941)">
            <path d="M-21.286,-21.571L21.286,-21.571L21.286,-21.001L-21.286,-21.001L-21.286,-21.571Z"/>
        </g>
        <g transform="matrix(-2.28125,-1.39687e-16,-1.39687e-16,2.28125,155.532,18.4845)">
            <path d="M-5.721,5.436L5.721,5.436L5.721,6.006L-5.721,6.006L-5.721,5.436Z"/>
        </g>
        <g transform="matrix(-2.28125,-1.39687e-16,-1.39687e-16,2.28125,155.532,245.919)">
            <path d="M-5.721,5.436L5.721,5.436L5.721,6.006L-5.721,6.006L-5.721,5.436Z"/>
        </g>
        <g transform="matrix(2.28125,1.39687e-16,1.39687e-16,-2.28125,220.691,96.6941)">
            <path d="M-21.286,-21.571L21.286,-21.571L21.286,-21.001L-21.286,-21.001L-21.286,-21.571Z"/>
        </g>
        <g transform="matrix(2.28125,1.39687e-16,1.39687e-16,-2.28125,90.3738,96.6941)">
            <path d="M-21.286,-21.571L21.286,-21.571L21.286,-21.001L-21.286,-21.001L-21.286,-21.571Z"/>
        </g>
        <g transform="matrix(-1.39687e-16,2.28125,2.28125,1.39687e-16,155.532,258.97)">
            <path d="M-42.594,-0.285L0,-0.285L0,0.285L-42.594,0.285L-42.594,-0.285Z"/>
        </g>
        <g transform="matrix(-1.39687e-16,2.28125,2.28125,1.39687e-16,155.532,258.97)">
            <path d="M-42.594,-0.285L0,-0.285L0,0.285L-42.594,0.285L-42.594,-0.285Z"/>
        </g>
        <g transform="matrix(-1.39687e-16,2.28125,2.28125,1.39687e-16,155.532,128.653)">
            <path d="M-42.594,-0.285L0,-0.285L0,0.285L-42.594,0.285L-42.594,-0.285Z"/>
        </g>
        <g transform="matrix(0,-3.16216,-3.16216,0,292.032,132.347)">
            <path d="M-3.953,-4.159C-1.658,-4.159 0.206,-2.295 0.206,0C0.206,2.295 -1.658,4.159 -3.953,4.159C-6.248,4.159 -8.112,2.295 -8.112,0C-8.112,-2.295 -6.248,-4.159 -3.953,-4.159ZM-3.953,-3.747C-6.021,-3.747 -7.7,-2.068 -7.7,0C-7.7,2.068 -6.021,3.747 -3.953,3.747C-1.885,3.747 -0.206,2.068 -0.206,0C-0.206,-2.068 -1.885,-3.747 -3.953,-3.747Z"/>
        </g>
        <g transform="matrix(0,-3.16216,-3.16216,0,292.032,140.762)">
            <path d="M-1.292,-1.292C-2.006,-1.292 -2.584,-0.714 -2.584,0C-2.584,0.714 -2.006,1.292 -1.292,1.292C-0.578,1.292 0,0.714 0,0C0,-0.714 -0.578,-1.292 -1.292,-1.292" style="fill-rule:nonzero;"/>
        </g>
        <g transform="matrix(0,-3.16216,-3.16216,0,19.0324,132.347)">
            <path d="M-3.953,-4.159C-1.658,-4.159 0.206,-2.295 0.206,0C0.206,2.295 -1.658,4.159 -3.953,4.159C-6.248,4.159 -8.112,2.295 -8.112,0C-8.112,-2.295 -6.248,-4.159 -3.953,-4.159ZM-3.953,-3.747C-6.021,-3.747 -7.7,-2.068 -7.7,0C-7.7,2.068 -6.021,3.747 -3.953,3.747C-1.885,3.747 -0.206,2.068 -0.206,0C-0.206,-2.068 -1.885,-3.747 -3.953,-3.747Z"/>
        </g>
        <g transform="matrix(0,-3.16216,-3.16216,0,19.0321,140.762)">
            <path d="M-1.292,-1.292C-2.006,-1.292 -2.584,-0.714 -2.584,0C-2.584,0.714 -2.006,1.292 -1.292,1.292C-0.578,1.292 0,0.714 0,0C0,-0.714 -0.578,-1.292 -1.292,-1.292" style="fill-rule:nonzero;"/>
        </g>
        <g transform="matrix(2.02489,0,0,2.02489,279.532,38.7341)">
            <path d="M0,-19.129L0,-13.246L-5.472,-7.774L-5.472,-6.443L-11.915,0L-20.248,0L-20.248,-3.769L-4.888,-19.129L0,-19.129Z" style="fill-rule:nonzero;"/>
        </g>
        <g transform="matrix(2.02489,0,0,2.02489,31.5324,38.7341)">
            <path d="M0,-19.129L0,-13.246L5.472,-7.774L5.472,-6.443L11.915,0L20.248,0L20.248,-3.769L4.888,-19.129L0,-19.129Z" style="fill-rule:nonzero;"/>
        </g>
        <g transform="matrix(2.02489,0,0,2.02489,279.532,250.96)">
            <path d="M0,19.129L0,13.246L-5.472,7.774L-5.472,6.443L-11.915,0L-20.248,0L-20.248,3.769L-4.888,19.129L0,19.129Z" style="fill-rule:nonzero;"/>
        </g>
        <g transform="matrix(2.02489,0,0,2.02489,31.5324,250.96)">
            <path d="M0,19.129L0,13.246L5.472,7.774L5.472,6.443L11.915,0L20.248,0L20.248,3.769L4.888,19.129L0,19.129Z" style="fill-rule:nonzero;"/>
        </g>
        <g transform="matrix(5.35935e-17,0.875248,-0.875248,5.35935e-17,221.532,140.109)">
            <path d="M0,52.245L-34.524,52.245C-37.018,52.245 -39.408,51.254 -41.174,49.49L-73.905,16.757C-74.788,15.875 -75.985,15.381 -77.233,15.381L-115.824,15.381L-115.824,0L-69.214,0C-66.72,0 -64.327,0.989 -62.564,2.753L-29.83,35.486C-28.95,36.369 -27.753,36.864 -26.505,36.864L0,36.864L0,52.245Z" style="fill-rule:nonzero;"/>
        </g>
        <g transform="matrix(5.35935e-17,0.875248,-0.875248,5.35935e-17,205.999,122.918)">
            <path d="M0,52.246L-73.854,52.246C-76.35,52.246 -78.741,51.254 -80.504,49.491L-96.183,33.813L-96.183,-0.001L-78.557,-0.001L-78.557,26.123L-69.106,35.502C-68.226,36.376 -67.034,36.866 -65.793,36.866L19.639,36.866L19.639,52.247L0,52.246Z" style="fill-rule:nonzero;"/>
        </g>
        <g transform="matrix(5.35935e-17,0.875248,-0.875248,5.35935e-17,2678.12,-2089.05)">
            <rect x="2531.51" y="2806.73" width="15.38" height="15.38"/>
        </g>
        <g transform="matrix(5.35935e-17,0.875248,0.875248,-5.35935e-17,89.5324,140.109)">
            <path d="M0,52.245L-34.524,52.245C-37.018,52.245 -39.408,51.254 -41.174,49.49L-73.905,16.757C-74.788,15.875 -75.985,15.381 -77.233,15.381L-115.824,15.381L-115.824,0L-69.214,0C-66.72,0 -64.327,0.989 -62.564,2.753L-29.83,35.486C-28.95,36.369 -27.753,36.864 -26.505,36.864L0,36.864L0,52.245Z" style="fill-rule:nonzero;"/>
        </g>
        <g transform="matrix(5.35935e-17,0.875248,0.875248,-5.35935e-17,105.066,122.918)">
            <path d="M0,52.246L-73.854,52.246C-76.35,52.246 -78.741,51.254 -80.504,49.491L-96.183,33.813L-96.183,-0.001L-78.557,-0.001L-78.557,26.123L-69.106,35.502C-68.226,36.376 -67.034,36.866 -65.793,36.866L19.639,36.866L19.639,52.247L0,52.246Z" style="fill-rule:nonzero;"/>
        </g>
        <g transform="matrix(5.35935e-17,0.875248,0.875248,-5.35935e-17,-2367.05,-2089.05)">
            <rect x="2531.51" y="2806.73" width="15.38" height="15.38"/>
        </g>
        <g transform="matrix(-5.35935e-17,-0.875248,-0.875248,5.35935e-17,221.532,149.585)">
            <path d="M0,52.245L-34.524,52.245C-37.018,52.245 -39.408,51.254 -41.174,49.49L-73.905,16.757C-74.788,15.875 -75.985,15.381 -77.233,15.381L-115.824,15.381L-115.824,0L-69.214,0C-66.72,0 -64.327,0.989 -62.564,2.753L-29.83,35.486C-28.95,36.369 -27.753,36.864 -26.505,36.864L0,36.864L0,52.245Z" style="fill-rule:nonzero;"/>
        </g>
        <g transform="matrix(-5.35935e-17,-0.875248,-0.875248,5.35935e-17,205.999,166.776)">
            <path d="M0,52.246L-73.854,52.246C-76.35,52.246 -78.741,51.254 -80.504,49.491L-96.183,33.813L-96.183,-0.001L-78.557,-0.001L-78.557,26.123L-69.106,35.502C-68.226,36.376 -67.034,36.866 -65.793,36.866L19.639,36.866L19.639,52.247L0,52.246Z" style="fill-rule:nonzero;"/>
        </g>
        <g transform="matrix(-5.35935e-17,-0.875248,-0.875248,5.35935e-17,2678.12,2378.74)">
            <rect x="2531.51" y="2806.73" width="15.38" height="15.38"/>
        </g>
        <g transform="matrix(-5.35935e-17,-0.875248,0.875248,-5.35935e-17,89.5324,149.585)">
            <path d="M0,52.245L-34.524,52.245C-37.018,52.245 -39.408,51.254 -41.174,49.49L-73.905,16.757C-74.788,15.875 -75.985,15.381 -77.233,15.381L-115.824,15.381L-115.824,0L-69.214,0C-66.72,0 -64.327,0.989 -62.564,2.753L-29.83,35.486C-28.95,36.369 -27.753,36.864 -26.505,36.864L0,36.864L0,52.245Z" style="fill-rule:nonzero;"/>
        </g>
        <g transform="matrix(-5.35935e-17,-0.875248,0.875248,-5.35935e-17,105.066,166.776)">
            <path d="M0,52.246L-73.854,52.246C-76.35,52.246 -78.741,51.254 -80.504,49.491L-96.183,33.813L-96.183,-0.001L-78.557,-0.001L-78.557,26.123L-69.106,35.502C-68.226,36.376 -67.034,36.866 -65.793,36.866L19.639,36.866L19.639,52.247L0,52.246Z" style="fill-rule:nonzero;"/>
        </g>
        <g transform="matrix(-5.35935e-17,-0.875248,0.875248,-5.35935e-17,-2367.05,2378.74)">
            <rect x="2531.51" y="2806.73" width="15.38" height="15.38"/>
        </g>
        <g transform="matrix(-2.28125,-1.39687e-16,-1.39687e-16,2.28125,138.933,145.253)">
            <ellipse cx="-7.277" cy="0" rx="7.276" ry="7.277"/>
        </g>
        <g transform="matrix(-2.28125,-1.39687e-16,-1.39687e-16,2.28125,138.933,145.253)">
            <path d="M-7.276,-7.276C-3.261,-7.276 -0,-4.016 -0,0C-0,4.016 -3.261,7.277 -7.276,7.277C-11.292,7.277 -14.552,4.016 -14.552,0C-14.552,-4.016 -11.292,-7.276 -7.276,-7.276ZM-7.276,-6.4C-10.808,-6.4 -13.676,-3.532 -13.676,0C-13.676,3.532 -10.808,6.4 -7.276,6.4C-3.745,6.4 -0.877,3.532 -0.877,0C-0.877,-3.532 -3.745,-6.4 -7.276,-6.4Z" style="fill:white;"/>
        </g>
    </g>
</svg>
