<?xml version="1.0" encoding="UTF-8" standalone="no"?>
<!DOCTYPE svg PUBLIC "-//W3C//DTD SVG 1.1//EN" "http://www.w3.org/Graphics/SVG/1.1/DTD/svg11.dtd">
<svg width="100%" height="100%" viewBox="0 0 186 168" version="1.1" xmlns="http://www.w3.org/2000/svg" xmlns:xlink="http://www.w3.org/1999/xlink" xml:space="preserve" xmlns:serif="http://www.serif.com/" style="fill-rule:evenodd;clip-rule:evenodd;stroke-linejoin:round;stroke-miterlimit:2;">
    <g transform="matrix(0.75,0,0,0.75,0,0)">
        <g transform="matrix(-2.70821,0,0,2.70821,60924.2,-7806.06)">
            <path d="M22490.1,2883.43C22489.4,2882.75 22488.5,2882.37 22487.5,2882.37L22451.6,2882.37L22451.6,2895.35L22457.6,2901.37C22458.3,2902.05 22459.2,2902.43 22460.2,2902.43L22479.5,2902.43C22480.5,2902.43 22481.4,2902.05 22482.1,2901.37L22488.6,2894.89L22488.6,2892.4L22481.8,2892.4L22478.2,2896C22477.8,2896.34 22477.4,2896.52 22476.9,2896.52L22463.3,2896.52C22462.8,2896.52 22462.4,2896.34 22462,2896L22458.4,2892.4L22458.4,2888.27L22484.4,2888.27C22484.9,2888.27 22485.4,2888.46 22485.7,2888.8L22489.3,2892.4L22489.3,2902.43L22496.1,2902.43L22496.1,2889.45L22490.1,2883.43Z" style="fill-rule:nonzero;"/>
        </g>
        <g transform="matrix(2.70821,0,0,2.70821,-60676.2,-7806.06)">
            <path d="M22496.1,2888.27L22496.1,2882.37L22451.6,2882.37L22451.6,2895.35L22457.6,2901.37C22458.3,2902.05 22459.2,2902.43 22460.2,2902.43L22487.5,2902.43C22488.5,2902.43 22489.4,2902.05 22490.1,2901.37L22496.1,2895.35L22496.1,2892.4L22489.3,2892.4L22485.7,2896C22485.4,2896.33 22484.9,2896.52 22484.4,2896.52L22463.3,2896.52C22462.8,2896.52 22462.4,2896.33 22462,2896L22458.4,2892.4L22458.4,2888.27L22496.1,2888.27L22496.1,2888.27Z" style="fill-rule:nonzero;"/>
        </g>
        <g transform="matrix(2.70821,0,0,2.70821,-60676.2,-7744.62)">
            <path d="M22451.6,2902.43L22458.4,2902.43L22458.4,2888.27L22466.4,2888.27C22466.9,2888.27 22467.4,2888.46 22467.7,2888.8L22480.3,2901.37C22481,2902.05 22481.9,2902.43 22482.8,2902.43L22496.1,2902.43L22496.1,2882.37L22489.3,2882.37L22489.3,2896.52L22485.9,2896.52C22485.4,2896.52 22485,2896.33 22484.6,2895.99L22472.1,2883.42C22471.4,2882.75 22470.5,2882.37 22469.5,2882.37L22451.6,2882.37L22451.6,2902.43Z" style="fill-rule:nonzero;"/>
        </g>
        <g transform="matrix(2.70821,0,0,2.70821,-60803.8,-7744.62)">
            <path d="M22451.6,2882.37L22451.6,2902.43L22458.4,2902.43L22458.4,2895.35L22484.4,2895.35C22484.9,2895.35 22485.4,2895.54 22485.7,2895.87L22489.3,2899.47L22489.3,2902.43L22496.1,2902.43L22496.1,2897.73C22496.1,2897.25 22495.9,2896.79 22495.6,2896.46L22491.5,2892.4L22495.6,2888.34C22495.9,2888 22496.1,2887.54 22496.1,2887.06L22496.1,2882.37L22451.6,2882.37L22451.6,2882.37ZM22458.4,2888.27L22486.3,2888.27L22485.7,2888.92C22485.4,2889.26 22484.9,2889.44 22484.4,2889.44L22458.4,2889.44L22458.4,2888.27L22458.4,2888.27Z" style="fill-rule:nonzero;"/>
        </g>
        <g transform="matrix(2.70634,0,0,-2.70634,-60761.7,7977.87)">
            <path d="M22490.1,2883.43C22489.4,2882.75 22488.5,2882.37 22487.5,2882.37L22451.6,2882.37L22451.6,2902.43L22496.1,2902.43L22496.1,2889.45L22490.1,2883.43ZM22489.3,2896.52L22458.4,2896.52L22458.4,2888.27L22484.4,2888.27C22484.9,2888.27 22485.4,2888.46 22485.7,2888.8L22489.3,2892.4L22489.3,2896.52Z" style="fill-rule:nonzero;"/>
        </g>
        <g transform="matrix(1.58714,0,0,1.58714,204.785,177.686)">
            <path d="M0,1.324L-7.945,9.269L-29.133,9.269L-31.781,11.918L-23.836,11.918L-32.222,20.304L-35.754,21.187L-41.05,15.89L-40.168,12.359L-29.133,1.324L-29.133,-11.918L-21.187,-19.863L-10.594,-19.863L-9.269,-18.539L-19.863,-7.945L-19.863,-0L-11.918,-0L-1.324,-10.594L0,-9.27L0,1.324Z" style="fill-rule:nonzero;"/>
        </g>
        <g transform="matrix(1.58714,0,0,1.58714,235.166,175.219)">
            <path d="M0,-7.493L0,0L-6.706,4.031C-7.284,6.032 -8.091,7.996 -9.124,9.855L-7.227,17.442L-12.52,22.744L-20.108,20.847C-21.976,21.881 -23.93,22.678 -25.941,23.256L-29.962,29.962L-37.455,29.962L-41.477,23.256C-42.956,22.83 -44.417,22.28 -45.821,21.616L-40.063,15.858C-32.94,18.163 -24.802,16.484 -19.14,10.822C-11.097,2.779 -11.097,-10.262 -19.14,-18.306C-27.183,-26.358 -40.234,-26.358 -48.277,-18.306C-53.94,-12.653 -55.618,-4.515 -53.304,2.618L-59.061,8.365C-59.735,6.962 -60.285,5.511 -60.712,4.031L-67.417,0L-67.417,-7.493L-60.712,-11.514C-60.133,-13.525 -59.327,-15.479 -58.293,-17.338L-60.19,-24.926L-54.898,-30.228L-47.31,-28.331C-45.441,-29.365 -43.487,-30.171 -41.477,-30.74L-37.455,-37.455L-29.962,-37.455L-25.941,-30.74C-23.93,-30.171 -21.976,-29.365 -20.108,-28.331L-12.52,-30.228L-7.227,-24.926L-9.124,-17.338C-8.091,-15.479 -7.284,-13.525 -6.706,-11.514L0,-7.493Z" style="fill-rule:nonzero;"/>
        </g>
    </g>
</svg>
