<?xml version="1.0" encoding="UTF-8" standalone="no"?>
<!DOCTYPE svg PUBLIC "-//W3C//DTD SVG 1.1//EN" "http://www.w3.org/Graphics/SVG/1.1/DTD/svg11.dtd">
<svg viewBox="0 0 50 310" version="1.1" xmlns="http://www.w3.org/2000/svg" xmlns:xlink="http://www.w3.org/1999/xlink" xml:space="preserve" xmlns:serif="http://www.serif.com/" style="fill-rule:evenodd;clip-rule:evenodd;stroke-linejoin:round;stroke-miterlimit:2;">
    <g transform="matrix(0.75,0,0,0.75,0,0)">
        <g transform="matrix(2.91742e-16,4.76451,-4.76451,2.91742e-16,944.384,-14702.4)">
            <path d="M3100,188.876L3098.08,186.955C3097.87,186.739 3097.57,186.618 3097.27,186.618L3089.54,186.618C3089.39,186.618 3089.24,186.558 3089.13,186.45L3088.92,186.244L3100,186.244L3100,184.36L3085.82,184.36L3085.82,186.244L3087.74,188.164C3087.95,188.38 3088.24,188.502 3088.55,188.502L3096.28,188.502C3096.43,188.502 3096.58,188.562 3096.69,188.669L3096.89,188.875L3085.82,188.875L3085.82,190.76L3100,190.76L3100,188.875L3100,188.876Z" style="fill:rgb(203,122,122);fill-rule:nonzero;"/>
        </g>
        <g transform="matrix(2.91742e-16,4.76451,-4.76451,2.91742e-16,944.384,-14702.4)">
            <path d="M3102.45,188.502L3112.32,188.502L3112.32,190.76L3114.48,190.76L3114.48,184.36L3112.32,184.36L3112.32,186.618L3102.45,186.618L3102.45,184.36L3100.3,184.36L3100.3,190.76L3102.45,190.76L3102.45,188.502Z" style="fill:rgb(203,122,122);fill-rule:nonzero;"/>
        </g>
        <g transform="matrix(2.91742e-16,4.76451,-4.76451,2.91742e-16,944.384,-14702.4)">
            <path d="M3127.04,184.697C3126.83,184.481 3126.53,184.36 3126.23,184.36L3117.51,184.36C3117.2,184.36 3116.91,184.481 3116.7,184.697L3114.78,186.618L3114.78,190.76L3123.68,190.76C3123.98,190.76 3124.27,190.638 3124.49,190.422L3126.56,188.354L3126.56,187.56L3124.4,187.56L3123.24,188.709C3123.13,188.816 3122.99,188.876 3122.84,188.876L3116.93,188.876L3116.93,187.56L3118.09,186.411C3118.2,186.304 3118.35,186.244 3118.5,186.244L3125.24,186.244C3125.39,186.244 3125.54,186.304 3125.65,186.411L3126.81,187.56L3126.81,190.76L3128.96,190.76L3128.96,186.618L3127.04,184.697L3127.04,184.697Z" style="fill:rgb(203,122,122);fill-rule:nonzero;"/>
        </g>
        <g transform="matrix(2.91742e-16,4.76451,-4.76451,2.91742e-16,944.384,-14702.4)">
            <path d="M3131.99,184.36C3131.68,184.36 3131.39,184.481 3131.18,184.697L3129.26,186.618L3129.26,190.76L3131.41,190.76L3131.41,189.631L3140.71,189.631C3141.01,189.631 3141.31,189.509 3141.52,189.293L3143.44,187.373L3143.44,184.36L3131.99,184.36ZM3141.28,186.431L3140.13,187.58C3140.02,187.687 3139.87,187.747 3139.72,187.747L3131.41,187.747L3131.41,187.56L3132.57,186.411C3132.68,186.304 3132.83,186.244 3132.98,186.244L3141.28,186.244L3141.28,186.431L3141.28,186.431Z" style="fill:rgb(203,122,122);fill-rule:nonzero;"/>
        </g>
        <g transform="matrix(2.91742e-16,4.76451,-4.76451,2.91742e-16,944.384,-14702.4)">
            <path d="M3143.9,186.413L3145.05,187.56L3143.9,188.707C3143.8,188.815 3143.74,188.961 3143.74,189.114L3143.74,190.76L3157.92,190.76L3157.92,188.875L3146.84,188.875L3147.05,188.669C3147.16,188.562 3147.31,188.502 3147.46,188.502L3154.44,188.502L3154.44,186.618L3147.46,186.618C3147.31,186.618 3147.16,186.558 3147.05,186.45L3146.84,186.244L3157.92,186.244L3157.92,184.36L3143.74,184.36L3143.74,186.005C3143.74,186.158 3143.8,186.304 3143.9,186.412L3143.9,186.413Z" style="fill:rgb(203,122,122);fill-rule:nonzero;"/>
        </g>
        <g transform="matrix(2.91742e-16,4.76451,-4.76451,2.91742e-16,944.384,-14702.4)">
            <path d="M3172.4,184.36L3160.95,184.36C3160.64,184.36 3160.35,184.481 3160.14,184.697L3158.22,186.618L3158.22,190.76L3160.38,190.76L3160.38,188.502L3168.68,188.502C3168.83,188.502 3168.98,188.562 3169.09,188.669L3170.24,189.818L3170.24,190.76L3172.4,190.76L3172.4,189.262C3172.4,189.109 3172.34,188.963 3172.24,188.855L3170.94,187.56L3172.24,186.265C3172.34,186.157 3172.4,186.01 3172.4,185.858L3172.4,184.36L3172.4,184.36ZM3169.3,186.244L3169.09,186.45C3168.98,186.558 3168.83,186.618 3168.68,186.618L3161.32,186.618L3161.53,186.411C3161.64,186.304 3161.79,186.244 3161.94,186.244L3169.3,186.244Z" style="fill:rgb(203,122,122);fill-rule:nonzero;"/>
        </g>
        <g transform="matrix(2.91742e-16,4.76451,-4.76451,2.91742e-16,944.384,-14702.4)">
            <path d="M3085.98,193.865L3087.13,195.012L3085.98,196.159C3085.88,196.267 3085.82,196.414 3085.82,196.566L3085.82,198.212L3100,198.212L3100,196.328L3088.92,196.328L3089.13,196.121C3089.24,196.014 3089.39,195.954 3089.54,195.954L3096.52,195.954L3096.52,194.07L3089.54,194.07C3089.39,194.07 3089.24,194.01 3089.13,193.903L3088.92,193.696L3100,193.696L3100,191.812L3085.82,191.812L3085.82,193.457C3085.82,193.61 3085.88,193.757 3085.98,193.865L3085.98,193.865Z" style="fill:rgb(203,122,122);fill-rule:nonzero;"/>
        </g>
        <g transform="matrix(2.91742e-16,4.76451,-4.76451,2.91742e-16,944.384,-14702.4)">
            <path d="M3112.33,191.812L3112.33,196.328L3112.08,196.328L3110.75,195.012L3110.75,194.07L3108.83,192.149C3108.62,191.933 3108.32,191.812 3108.02,191.812L3100.3,191.812L3100.3,198.212L3102.45,198.212L3102.45,193.696L3107.03,193.696C3107.18,193.696 3107.33,193.756 3107.43,193.863L3108.59,195.012L3108.59,195.716C3108.59,195.868 3108.65,196.015 3108.76,196.123L3110.85,198.212L3114.48,198.212L3114.48,191.812L3112.32,191.812L3112.33,191.812Z" style="fill:rgb(203,122,122);fill-rule:nonzero;"/>
        </g>
        <g transform="matrix(2.91742e-16,4.76451,-4.76451,2.91742e-16,944.384,-14702.4)">
            <path d="M3114.94,193.865L3116.09,195.012L3114.94,196.159C3114.84,196.267 3114.78,196.414 3114.78,196.566L3114.78,198.212L3128.96,198.212L3128.96,196.328L3117.88,196.328L3118.09,196.121C3118.2,196.014 3118.35,195.954 3118.5,195.954L3125.48,195.954L3125.48,194.07L3118.5,194.07C3118.35,194.07 3118.2,194.01 3118.09,193.903L3117.88,193.696L3128.96,193.696L3128.96,191.812L3114.78,191.812L3114.78,193.457C3114.78,193.61 3114.84,193.757 3114.94,193.865L3114.94,193.865Z" style="fill:rgb(203,122,122);fill-rule:nonzero;"/>
        </g>
        <g transform="matrix(2.91742e-16,4.76451,-4.76451,2.91742e-16,944.384,-14702.4)">
            <path d="M3143.44,191.812L3131.99,191.812C3131.68,191.812 3131.39,191.933 3131.18,192.149L3129.26,194.07L3129.26,198.212L3131.41,198.212L3131.41,195.954L3139.72,195.954C3139.87,195.954 3140.02,196.014 3140.13,196.121L3141.28,197.27L3141.28,198.212L3143.44,198.212L3143.44,196.714C3143.44,196.561 3143.38,196.415 3143.28,196.307L3141.98,195.012L3143.28,193.717C3143.38,193.609 3143.44,193.463 3143.44,193.31L3143.44,191.812L3143.44,191.812ZM3140.34,193.696L3140.13,193.903C3140.02,194.01 3139.87,194.07 3139.72,194.07L3132.36,194.07L3132.57,193.863C3132.68,193.756 3132.83,193.696 3132.98,193.696L3140.34,193.696Z" style="fill:rgb(203,122,122);fill-rule:nonzero;"/>
        </g>
        <g transform="matrix(2.91742e-16,4.76451,-4.76451,2.91742e-16,944.384,-14702.4)">
            <path d="M3145.66,192.15L3143.74,194.07L3143.74,195.954L3145.66,197.875C3145.87,198.091 3146.16,198.212 3146.47,198.212L3157.92,198.212L3157.92,196.328L3156,194.408C3155.79,194.191 3155.49,194.07 3155.19,194.07L3147.22,194.07L3147.22,195.954L3154.2,195.954C3154.35,195.954 3154.5,196.014 3154.61,196.121L3154.82,196.328L3147.22,196.328L3145.89,195.012L3147.05,193.864C3147.16,193.757 3147.31,193.696 3147.46,193.696L3157.92,193.696L3157.92,191.812L3146.47,191.812C3146.16,191.812 3145.87,191.934 3145.66,192.15Z" style="fill:rgb(203,122,122);fill-rule:nonzero;"/>
        </g>
        <g transform="matrix(2.91742e-16,4.76451,-4.76451,2.91742e-16,944.384,-14702.4)">
            <path d="M3170.24,197.27L3170.24,198.212L3172.4,198.212L3172.4,196.567C3172.4,196.414 3172.34,196.267 3172.24,196.159L3171.09,195.012L3172.24,193.865C3172.34,193.757 3172.4,193.61 3172.4,193.457L3172.4,191.812L3170.24,191.812L3170.24,192.754L3169.09,193.903C3168.98,194.01 3168.83,194.07 3168.68,194.07L3161.94,194.07C3161.79,194.07 3161.64,194.01 3161.53,193.903L3160.38,192.754L3160.38,191.812L3158.22,191.812L3158.22,193.696L3160.14,195.617C3160.35,195.833 3160.64,195.954 3160.95,195.954L3168.68,195.954C3168.83,195.954 3168.98,196.014 3169.09,196.121L3170.24,197.27L3170.24,197.27Z" style="fill:rgb(203,122,122);fill-rule:nonzero;"/>
        </g>
    </g>
</svg>
