<?xml version="1.0" encoding="UTF-8" standalone="no"?>
<!DOCTYPE svg PUBLIC "-//W3C//DTD SVG 1.1//EN" "http://www.w3.org/Graphics/SVG/1.1/DTD/svg11.dtd">
<svg width="100%" height="100%" viewBox="0 0 261 41" version="1.1" xmlns="http://www.w3.org/2000/svg" xmlns:xlink="http://www.w3.org/1999/xlink" xml:space="preserve" xmlns:serif="http://www.serif.com/" style="fill-rule:evenodd;clip-rule:evenodd;stroke-linejoin:round;stroke-miterlimit:2;">
    <g transform="matrix(0.75,0,0,0.75,0,0)">
        <g transform="matrix(-1.01519,0,0,0.917452,1286.82,-934.539)">
            <rect x="1032.15" y="1033.45" width="235.425" height="44.689"/>
        </g>
        <g transform="matrix(-0.926963,0,0,0.926963,1228.65,-944.697)">
            <rect x="1161" y="1039.54" width="3.544" height="32.16" style="fill:white;"/>
        </g>
        <g transform="matrix(-0.926963,0,0,0.926963,1218.69,-944.697)">
            <rect x="1156.25" y="1039.54" width="2.306" height="32.16" style="fill:white;"/>
        </g>
        <g transform="matrix(-0.926963,0,0,0.926963,1242.8,-944.697)">
            <rect x="1169.25" y="1039.54" width="2.306" height="32.16" style="fill:white;"/>
        </g>
        <g transform="matrix(-0.926963,0,0,0.926963,1272.22,-944.697)">
            <rect x="1185.12" y="1039.54" width="2.306" height="32.16" style="fill:white;"/>
        </g>
        <g transform="matrix(0.926963,0,0,0.926963,-927.042,-944.697)">
            <rect x="1198.29" y="1039.54" width="2.306" height="32.16" style="fill:white;"/>
        </g>
        <g transform="matrix(0.926963,0,0,0.926963,-927.042,-944.697)">
            <rect x="1231.7" y="1039.54" width="2.306" height="32.16" style="fill:white;"/>
        </g>
        <g transform="matrix(0.926963,0,0,0.926963,-927.042,-944.697)">
            <rect x="1227.92" y="1039.54" width="1.395" height="32.16" style="fill:white;"/>
        </g>
        <g transform="matrix(0.926963,0,0,0.926963,-927.042,-944.697)">
            <rect x="1223.77" y="1039.54" width="1.395" height="32.16" style="fill:white;"/>
        </g>
        <g transform="matrix(0.926963,0,0,0.926963,-927.042,-944.697)">
            <rect x="1219.61" y="1039.54" width="1.395" height="32.16" style="fill:white;"/>
        </g>
        <g transform="matrix(0.926963,0,0,0.926963,-927.042,-944.697)">
            <rect x="1193.16" y="1039.54" width="1.395" height="32.16" style="fill:white;"/>
        </g>
        <g transform="matrix(0.926963,0,0,0.926963,-927.042,-944.697)">
            <rect x="1188.59" y="1039.54" width="1.395" height="32.16" style="fill:white;"/>
        </g>
        <g transform="matrix(0.926963,0,0,0.926963,-927.042,-944.697)">
            <rect x="1180.11" y="1039.54" width="1.395" height="32.16" style="fill:white;"/>
        </g>
        <g transform="matrix(0.926963,0,0,0.926963,-927.042,-944.697)">
            <rect x="1206.59" y="1039.54" width="1.011" height="32.16" style="fill:white;"/>
        </g>
        <g transform="matrix(0.926963,0,0,0.926963,-927.042,-944.697)">
            <rect x="1175.33" y="1039.54" width="1.011" height="32.16" style="fill:white;"/>
        </g>
        <g transform="matrix(0.926963,0,0,0.926963,-927.042,-944.697)">
            <rect x="1166.98" y="1039.54" width="1.011" height="32.16" style="fill:white;"/>
        </g>
        <g transform="matrix(0.926963,0,0,0.926963,-927.042,-944.697)">
            <rect x="1153.88" y="1039.54" width="1.011" height="32.16" style="fill:white;"/>
        </g>
        <g transform="matrix(0.926963,0,0,0.926963,-927.042,-944.697)">
            <rect x="1204.37" y="1039.54" width="1.011" height="32.16" style="fill:white;"/>
        </g>
        <g transform="matrix(0.926963,0,0,0.926963,-927.042,-944.697)">
            <rect x="1240.12" y="1039.54" width="1.011" height="32.16" style="fill:white;"/>
        </g>
        <g transform="matrix(-0.926963,0,0,0.926963,1206.35,-944.697)">
            <rect x="1148.96" y="1039.54" width="3.566" height="32.16" style="fill:white;"/>
        </g>
        <g transform="matrix(-0.926963,0,0,0.926963,1327.75,-944.697)">
            <rect x="1213.99" y="1039.54" width="4.484" height="32.16" style="fill:white;"/>
        </g>
        <g transform="matrix(-0.926963,0,0,0.926963,1380.89,-944.697)">
            <rect x="1242.64" y="1039.54" width="4.484" height="32.16" style="fill:white;"/>
        </g>
        <g transform="matrix(-0.926963,0,0,0.926963,1318.18,-944.697)">
            <rect x="1209.28" y="1039.54" width="3.566" height="32.16" style="fill:white;"/>
        </g>
        <g transform="matrix(-0.926963,0,0,0.926963,1366.18,-944.697)">
            <rect x="1235.17" y="1039.54" width="3.566" height="32.16" style="fill:white;"/>
        </g>
        <g transform="matrix(1.32834e-17,0.216934,-0.216934,1.32834e-17,35.6561,42.9672)">
            <path d="M0,20.343C-1.741,22.084 -4.1,23.064 -6.564,23.064L-79.458,23.064L-79.458,16.308L-72.32,9.229C-71.449,8.364 -70.278,7.883 -69.051,7.883L-14.519,7.883C-13.298,7.883 -12.121,7.395 -11.25,6.536L-1.922,-2.721L15.471,-2.721L15.471,4.872L0,20.343Z" style="fill:white;fill-rule:nonzero;"/>
        </g>
        <g transform="matrix(1.32834e-17,0.216934,-0.216934,1.32834e-17,25.1584,24.6795)">
            <path d="M0,-20.344C1.741,-22.085 4.1,-23.065 6.564,-23.065L79.458,-23.065L79.458,-16.309L72.32,-9.23C71.449,-8.365 70.278,-7.884 69.051,-7.884L14.519,-7.884C13.298,-7.884 12.121,-7.396 11.25,-6.537L1.922,2.721L-15.471,2.721L-15.471,-4.873L0,-20.344Z" style="fill:white;fill-rule:nonzero;"/>
        </g>
        <g transform="matrix(1.32834e-17,0.216934,-0.216934,1.32834e-17,28.0878,42.9672)">
            <path d="M0,20.343C-1.741,22.084 -4.1,23.064 -6.564,23.064L-79.458,23.064L-79.458,16.308L-72.32,9.23C-71.449,8.365 -70.278,7.883 -69.051,7.883L-14.519,7.883C-13.298,7.883 -12.121,7.396 -11.25,6.536L-1.922,-2.721L15.471,-2.721L15.471,4.872L0,20.343Z" style="fill:white;fill-rule:nonzero;"/>
        </g>
        <g transform="matrix(1.32834e-17,0.216934,-0.216934,1.32834e-17,17.5903,24.6795)">
            <path d="M0,-20.343C1.741,-22.084 4.1,-23.064 6.564,-23.064L79.458,-23.064L79.458,-16.308L72.32,-9.23C71.449,-8.365 70.278,-7.883 69.051,-7.883L14.519,-7.883C13.298,-7.883 12.121,-7.395 11.25,-6.536L1.922,2.721L-15.471,2.721L-15.471,-4.872L0,-20.343Z" style="fill:white;fill-rule:nonzero;"/>
        </g>
        <g transform="matrix(-0.214541,0.214541,0.214541,0.214541,50.9435,33.5764)">
            <rect x="-27.565" y="11.418" width="33.725" height="3.452" style="fill:white;"/>
        </g>
        <g transform="matrix(-0.214541,0.214541,0.214541,0.214541,55.536,28.9838)">
            <rect x="8.977" y="-3.718" width="3.452" height="33.725" style="fill:white;"/>
        </g>
        <g transform="matrix(1.85783e-17,-0.303407,0.303407,1.85783e-17,44.7759,29.1)">
            <path d="M0,-5.314L-11.629,6.319L-21.33,6.319L-32.959,-5.314L-32.959,-11.633L-24.493,-11.633C-23.7,-11.633 -22.942,-11.316 -22.385,-10.756L-16.478,-4.802L-10.574,-10.756C-10.018,-11.316 -9.259,-11.633 -8.467,-11.633L0,-11.633L0,-5.314Z" style="fill:white;fill-rule:nonzero;"/>
        </g>
        <g transform="matrix(1.85783e-17,-0.303407,0.303407,1.85783e-17,68.9557,29.1)">
            <path d="M0,-5.314L-11.629,6.319L-21.33,6.319L-32.959,-5.314L-32.959,-11.633L-24.493,-11.633C-23.7,-11.633 -22.942,-11.316 -22.385,-10.756L-16.478,-4.801L-10.574,-10.756C-10.018,-11.316 -9.259,-11.633 -8.467,-11.633L0,-11.633L0,-5.314Z" style="fill:white;fill-rule:nonzero;"/>
        </g>
        <g transform="matrix(1.85783e-17,-0.303407,0.303407,1.85783e-17,77.1335,29.1)">
            <path d="M0,-5.314L-11.629,6.319L-21.33,6.319L-32.959,-5.314L-32.959,-11.633L-24.493,-11.633C-23.7,-11.633 -22.942,-11.316 -22.385,-10.756L-16.478,-4.801L-10.574,-10.756C-10.018,-11.316 -9.259,-11.633 -8.467,-11.633L0,-11.633L0,-5.314Z" style="fill:white;fill-rule:nonzero;"/>
        </g>
        <g transform="matrix(0.29999,0,0,0.29999,93.7325,26.9114)">
            <path d="M0,42.42L-4.962,37.419C-5.425,36.953 -5.684,36.323 -5.684,35.666L-5.684,6.754C-5.684,6.097 -5.425,5.468 -4.962,5.001L0,0L0,-9.326L-4.069,-9.326L-12.365,-1.03C-13.298,-0.097 -13.822,1.169 -13.823,2.489L-13.823,39.932C-13.822,41.252 -13.298,42.517 -12.365,43.451L-4.069,51.746L0,51.746L0,42.42Z" style="fill:white;fill-rule:nonzero;"/>
        </g>
        <g transform="matrix(0.29999,0,0,0.29999,115.369,39.6371)">
            <path d="M0,-42.42L4.962,-37.419C5.425,-36.953 5.684,-36.323 5.684,-35.666L5.684,-6.754C5.684,-6.097 5.425,-5.468 4.962,-5.001L0,0L0,9.326L4.069,9.326L12.365,1.03C13.298,0.097 13.822,-1.169 13.823,-2.489L13.823,-39.932C13.822,-41.252 13.298,-42.517 12.365,-43.451L4.069,-51.746L0,-51.746L0,-42.42Z" style="fill:white;fill-rule:nonzero;"/>
        </g>
        <g transform="matrix(0.29999,0,0,0.29999,95.5352,22.4692)">
            <path d="M0,32.872L0.028,25.827C0.03,25.17 0.292,24.541 0.756,24.077L21.2,3.633C21.665,3.169 22.294,2.907 22.95,2.904L29.995,2.877L36.59,-3.718L33.712,-6.595L21.981,-6.595C20.661,-6.595 19.395,-6.071 18.462,-5.138L16.4,-3.076L16.4,-3.077L-5.953,19.277L-8.015,21.339C-8.948,22.272 -9.472,23.538 -9.472,24.858L-9.472,36.589L-6.595,39.467L0,32.872Z" style="fill:white;fill-rule:nonzero;"/>
        </g>
        <g transform="matrix(0.29999,0,0,0.29999,113.224,44.4112)">
            <path d="M0,-32.872L-0.028,-25.827C-0.03,-25.17 -0.292,-24.542 -0.756,-24.077L-21.2,-3.633C-21.665,-3.169 -22.294,-2.907 -22.95,-2.904L-29.995,-2.877L-36.59,3.718L-33.713,6.595L-21.981,6.595C-20.661,6.595 -19.395,6.071 -18.462,5.138L-16.4,3.076L-16.4,3.077L5.953,-19.277L8.015,-21.339C8.948,-22.272 9.472,-23.538 9.472,-24.858L9.472,-36.589L6.595,-39.467L0,-32.872Z" style="fill:white;fill-rule:nonzero;"/>
        </g>
        <g transform="matrix(0.978495,0,0,0.978495,310.6,24.2667)">
            <path d="M0,20.667C-1.141,20.667 -2.067,19.742 -2.067,18.6C-2.067,17.459 -1.141,16.534 0,16.534C1.141,16.534 2.067,17.459 2.067,18.6C2.067,19.742 1.141,20.667 0,20.667M-9.3,8.267C-13.296,8.267 -16.533,5.029 -16.533,1.034C-16.533,-2.962 -13.296,-6.2 -9.3,-6.2C-5.304,-6.2 -2.067,-2.962 -2.067,1.034C-2.067,5.029 -5.304,8.267 -9.3,8.267M-6.2,14.467L-12.4,14.467L-12.4,12.4L-6.2,12.4L-6.2,14.467ZM-6.2,18.6L-12.4,18.6L-12.4,16.533L-6.2,16.533L-6.2,18.6ZM-18.6,20.667C-19.741,20.667 -20.667,19.742 -20.667,18.6C-20.667,17.459 -19.741,16.534 -18.6,16.534C-17.459,16.534 -16.533,17.459 -16.533,18.6C-16.533,19.742 -17.459,20.667 -18.6,20.667M26.867,12.4L33.067,31L37.2,31L31,8.267L22.733,-2.066L18.6,-2.066L3.226,13.307C2.863,13.085 2.475,12.899 2.067,12.754L2.067,-6.2L-2.067,-10.333L-16.533,-10.333L-20.667,-6.2L-20.667,12.754C-21.075,12.899 -21.463,13.085 -21.826,13.307L-37.2,-2.066L-41.333,-2.066L-49.6,8.267L-55.8,31L-51.667,31L-45.467,12.4L-39.267,4.134L-24.584,16.979C-24.724,17.496 -24.8,18.038 -24.8,18.6C-24.8,19.326 -24.676,20.022 -24.446,20.667L-26.867,20.667L-37.2,12.4L-41.333,14.467L-49.6,31L-45.467,31L-37.2,18.6L-28.933,24.8L-18.6,24.8L-14.467,28.934L-4.133,28.934L0,24.8L10.333,24.8L18.6,18.6L26.867,31L31,31L22.733,14.467L18.6,12.4L8.267,20.667L5.846,20.667C6.076,20.022 6.2,19.326 6.2,18.6C6.2,18.038 6.124,17.496 5.984,16.979L20.667,4.134L26.867,12.4Z" style="fill-rule:nonzero;"/>
        </g>
        <g transform="matrix(0.978495,0,0,0.978495,288.356,19.384)">
            <path d="M0,-5.343L0,14.467L-4.133,10.334L-4.133,-1.21L-18.6,-15.676L-18.6,-19.81L0,-5.343Z" style="fill-rule:nonzero;"/>
        </g>
        <g transform="matrix(0,-0.978495,-0.978495,0,301.5,22.2448)">
            <path d="M-3.1,-3.1C-4.813,-3.1 -6.2,-1.713 -6.2,0C-6.2,1.713 -4.813,3.1 -3.1,3.1C-1.387,3.1 0,1.713 0,0C0,-1.713 -1.387,-3.1 -3.1,-3.1" style="fill-rule:nonzero;"/>
        </g>
        <g transform="matrix(0.978495,0,0,0.978495,332.844,33.5402)">
            <path d="M0,-34.277L0,-30.144L-14.467,-15.677L-14.467,-4.134L-18.6,0L-18.6,-19.81L0,-34.277Z" style="fill-rule:nonzero;"/>
        </g>
    </g>
</svg>
