<?xml version="1.0" encoding="UTF-8" standalone="no"?>
<!DOCTYPE svg PUBLIC "-//W3C//DTD SVG 1.1//EN" "http://www.w3.org/Graphics/SVG/1.1/DTD/svg11.dtd">
<svg width="100%" height="100%" viewBox="0 0 1920 268" version="1.1" xmlns="http://www.w3.org/2000/svg" xmlns:xlink="http://www.w3.org/1999/xlink" xml:space="preserve" xmlns:serif="http://www.serif.com/" style="fill-rule:evenodd;clip-rule:evenodd;stroke-linejoin:round;stroke-miterlimit:2;">
    <g transform="matrix(1,0,0,1,0,-465.144)">
        <g transform="matrix(1,0,0,1,0,466.144)">
            <g transform="matrix(1,0,0,1,0,-467.144)">
                <path d="M1301.68,607.103L1262.02,646.76L1262.02,685.667L1301.68,725.321C1306.14,729.781 1312.19,732.289 1318.5,732.289L1554.99,732.289L1554.99,693.385L1515.34,653.728C1510.88,649.265 1504.82,646.76 1498.51,646.76L1333.99,646.76L1333.99,685.667L1478.12,685.667C1481.26,685.667 1484.27,686.906 1486.5,689.12L1490.8,693.388L1333.99,693.388L1306.6,666.217L1330.51,642.495C1332.74,640.285 1335.75,639.042 1338.89,639.042L1554.99,639.042L1554.99,600.135L1318.5,600.135C1312.19,600.135 1306.14,602.643 1301.68,607.103ZM524.734,600.134L524.438,600.132L365.008,600.132L365.008,732.289L409.59,732.289L409.59,639.039L504.046,639.039C507.185,639.039 510.198,640.281 512.425,642.492L536.332,666.214L536.332,680.738C536.332,683.893 537.584,686.919 539.818,689.149L582.957,732.289L657.979,732.289L657.979,600.132L613.399,600.132L613.399,693.382L608.305,693.382L580.919,666.21L580.919,646.757L541.262,607.1C536.871,602.709 530.937,600.211 524.734,600.134ZM1605.61,619.586L1605.61,600.132L1561.02,600.132L1561.02,639.039L1600.68,678.696C1605.14,683.156 1611.19,685.664 1617.5,685.664L1777.13,685.664C1780.27,685.664 1783.28,686.903 1785.51,689.116L1809.41,712.839L1809.41,732.289L1854,732.289L1854,698.311C1854,695.156 1852.75,692.13 1850.51,689.9L1826.82,666.21L1850.51,642.521C1852.74,640.291 1854,637.265 1854,634.11L1854,600.132L1809.41,600.132L1809.41,619.586L1785.51,643.308C1783.28,645.518 1780.27,646.76 1777.13,646.76L1637.9,646.76C1634.76,646.76 1631.74,645.521 1629.52,643.308L1605.61,619.586ZM1255.99,631.06L1255.99,600.132L1019.49,600.132C1013.18,600.132 1007.13,602.64 1002.67,607.1L963.013,646.757L963.013,732.289L1007.6,732.289L1007.6,685.661L1179.12,685.661C1182.25,685.664 1185.26,686.903 1187.49,689.116L1211.4,712.835L1211.4,732.289L1255.99,732.289L1255.99,701.361C1255.99,698.205 1254.73,695.179 1252.5,692.949L1225.76,666.21L1252.5,639.472C1254.73,637.242 1255.99,634.215 1255.99,631.06ZM69.486,642.524L93.171,666.21L69.486,689.896C67.255,692.126 66,695.153 66,698.308L66,732.286L358.975,732.286L358.975,693.379L130.192,693.379L134.493,689.113C136.72,686.903 139.733,685.664 142.872,685.664L287.009,685.664L287.009,646.757L142.875,646.757C139.737,646.757 136.723,645.518 134.497,643.304L130.195,639.036L358.978,639.036L358.978,600.129L66,600.129L66,634.106C66,637.261 67.252,640.288 69.486,642.518L69.486,642.524ZM667.494,642.524L691.18,666.21L667.494,689.896C665.264,692.126 664.009,695.153 664.009,698.308L664.009,732.286L956.984,732.286L956.984,693.379L728.201,693.379L732.502,689.113C734.729,686.903 737.742,685.664 740.881,685.664L885.018,685.664L885.018,646.757L740.884,646.757C737.746,646.757 734.732,645.518 732.506,643.304L728.204,639.036L956.987,639.036L956.987,600.129L664.009,600.129L664.009,634.106C664.009,637.261 665.261,640.288 667.494,642.518L667.494,642.524ZM1191.8,639.039L1187.5,643.304C1185.28,645.515 1182.26,646.757 1179.13,646.757L1027.21,646.757L1031.51,642.492C1033.73,640.281 1036.75,639.039 1039.88,639.039L1191.8,639.039ZM917.331,473.115C912.868,468.655 906.819,466.148 900.508,466.148L720.491,466.148C714.18,466.148 708.128,468.655 703.667,473.115L664.01,512.772L664.01,598.304L847.774,598.304C854.085,598.304 860.138,595.797 864.598,591.336L907.307,548.626L907.307,532.226L862.725,532.226L838.817,555.948C836.59,558.158 833.577,559.401 830.438,559.401L708.597,559.401L708.597,532.229L732.504,508.507C734.734,506.297 737.744,505.054 740.883,505.054L880.116,505.054C883.255,505.054 886.268,506.297 888.495,508.507L912.402,532.229L912.402,598.307L956.985,598.307L956.985,512.776L917.328,473.119L917.331,473.115ZM1019.5,466.148C1013.19,466.148 1007.13,468.655 1002.67,473.115L963.015,512.772L963.015,598.304L1007.6,598.304L1007.6,574.992L1199.51,574.992C1205.82,574.992 1211.87,572.484 1216.33,568.024L1255.99,528.367L1255.99,466.148L1019.5,466.148ZM409.591,551.679L613.396,551.679L613.396,598.304L657.982,598.304L657.982,466.148L613.396,466.148L613.396,512.772L409.591,512.772L409.591,466.148L365.004,466.148L365.004,598.304L409.591,598.304L409.591,551.679ZM1854,497.076L1854,466.148L1617.5,466.148C1611.19,466.148 1605.14,468.655 1600.68,473.115L1561.02,512.772L1561.02,598.304L1605.61,598.304L1605.61,551.676L1777.12,551.676C1780.26,551.679 1783.27,552.918 1785.5,555.132L1809.41,578.851L1809.41,598.304L1854,598.304L1854,567.376C1854,564.221 1852.74,561.195 1850.51,558.964L1823.77,532.226L1850.51,505.487C1852.74,503.257 1854,500.231 1854,497.076ZM358.975,559.394L319.321,519.74C314.861,515.28 308.808,512.772 302.497,512.772L142.872,512.772C139.733,512.772 136.72,511.53 134.493,509.32L130.192,505.051L358.978,505.051L358.978,466.144L66,466.144L66,505.051L105.657,544.708C110.121,549.168 116.17,551.676 122.481,551.676L282.103,551.676C285.241,551.676 288.254,552.915 290.481,555.125L294.783,559.394L66,559.394L66,598.301L358.975,598.301L358.975,559.394ZM1265.5,508.54L1289.19,532.226L1265.5,555.912C1263.27,558.142 1262.02,561.168 1262.02,564.324L1262.02,598.301L1554.99,598.301L1554.99,559.394L1326.21,559.394L1330.51,555.129C1332.74,552.918 1335.75,551.679 1338.89,551.679L1483.03,551.679L1483.03,512.772L1338.89,512.772C1335.75,512.772 1332.74,511.534 1330.52,509.32L1326.21,505.051L1555,505.051L1555,466.144L1262.02,466.144L1262.02,500.122C1262.02,503.277 1263.27,506.303 1265.5,508.534L1265.5,508.54ZM358.975,559.394L358.978,559.397L358.975,559.394ZM1039.89,505.058L1211.41,505.058L1211.41,508.914L1187.5,532.636C1185.27,534.846 1182.26,536.088 1179.12,536.088L1007.6,536.088L1007.6,532.229L1031.51,508.51C1033.74,506.3 1036.75,505.058 1039.89,505.058ZM1789.81,505.054L1785.51,509.32C1783.29,511.53 1780.27,512.772 1777.13,512.772L1625.22,512.772L1629.52,508.507C1631.74,506.297 1634.76,505.054 1637.89,505.054L1789.81,505.054Z" style="fill:white;fill-rule:nonzero;"/>
            </g>
        </g>
        <g transform="matrix(1,0,0,1,0,466.144)">
            <g transform="matrix(0.899719,0,0,-0.516484,-34220.8,231.023)">
                <rect x="38035" y="-68" width="2134" height="91"/>
            </g>
        </g>
    </g>
</svg>
