<?xml version="1.0" encoding="UTF-8" standalone="no"?>
<!DOCTYPE svg PUBLIC "-//W3C//DTD SVG 1.1//EN" "http://www.w3.org/Graphics/SVG/1.1/DTD/svg11.dtd">
<svg width="100%" height="100%" viewBox="0 0 1440 200" version="1.1" xmlns="http://www.w3.org/2000/svg" xmlns:xlink="http://www.w3.org/1999/xlink" xml:space="preserve" xmlns:serif="http://www.serif.com/" style="fill-rule:evenodd;clip-rule:evenodd;stroke-linejoin:round;stroke-miterlimit:2;">
    <g transform="matrix(0.75,0,0,0.75,0,0)">
        <path d="M1301.68,140.959L1262.02,180.616L1262.02,219.523L1301.68,259.176C1306.14,263.637 1312.19,266.144 1318.5,266.144L1554.99,266.144L1554.99,227.241L1515.34,187.584C1510.88,183.12 1504.82,180.616 1498.51,180.616L1333.99,180.616L1333.99,219.523L1478.12,219.523C1481.26,219.523 1484.27,220.762 1486.5,222.975L1490.8,227.244L1333.99,227.244L1306.6,200.072L1330.51,176.35C1332.74,174.14 1335.75,172.898 1338.89,172.898L1554.99,172.898L1554.99,133.991L1318.5,133.991C1312.19,133.991 1306.14,136.499 1301.68,140.959ZM524.734,133.99L524.438,133.988L365.008,133.988L365.008,266.144L409.59,266.144L409.59,172.895L504.046,172.895C507.185,172.895 510.198,174.137 512.425,176.347L536.332,200.069L536.332,214.593C536.332,217.748 537.584,220.775 539.818,223.005L582.957,266.144L657.979,266.144L657.979,133.988L613.399,133.988L613.399,227.238L608.305,227.238L580.919,200.066L580.919,180.613L541.262,140.956C536.871,136.565 530.937,134.066 524.734,133.99ZM1605.61,153.441L1605.61,133.988L1561.02,133.988L1561.02,172.895L1600.68,212.552C1605.14,217.012 1611.19,219.519 1617.5,219.519L1777.13,219.519C1780.27,219.519 1783.28,220.758 1785.51,222.972L1809.41,246.694L1809.41,266.144L1854,266.144L1854,232.167C1854,229.012 1852.75,225.985 1850.51,223.755L1826.82,200.066L1850.51,176.377C1852.74,174.147 1854,171.12 1854,167.965L1854,133.988L1809.41,133.988L1809.41,153.441L1785.51,177.163C1783.28,179.374 1780.27,180.616 1777.13,180.616L1637.9,180.616C1634.76,180.616 1631.74,179.377 1629.52,177.163L1605.61,153.441ZM1255.99,164.916L1255.99,133.988L1019.49,133.988C1013.18,133.988 1007.13,136.495 1002.67,140.956L963.013,180.613L963.013,266.144L1007.6,266.144L1007.6,219.516L1179.12,219.516C1182.25,219.519 1185.26,220.758 1187.49,222.972L1211.4,246.691L1211.4,266.144L1255.99,266.144L1255.99,235.216C1255.99,232.061 1254.73,229.035 1252.5,226.805L1225.76,200.066L1252.5,173.328C1254.73,171.097 1255.99,168.071 1255.99,164.916ZM69.486,176.38L93.171,200.066L69.486,223.752C67.255,225.982 66,229.008 66,232.164L66,266.141L358.975,266.141L358.975,227.234L130.192,227.234L134.493,222.969C136.72,220.758 139.733,219.519 142.872,219.519L287.009,219.519L287.009,180.613L142.875,180.613C139.737,180.613 136.723,179.374 134.497,177.16L130.195,172.891L358.978,172.891L358.978,133.984L66,133.984L66,167.962C66,171.117 67.252,174.144 69.486,176.374L69.486,176.38ZM667.494,176.38L691.18,200.066L667.494,223.752C665.264,225.982 664.009,229.008 664.009,232.164L664.009,266.141L956.984,266.141L956.984,227.234L728.201,227.234L732.502,222.969C734.729,220.758 737.742,219.519 740.881,219.519L885.018,219.519L885.018,180.613L740.884,180.613C737.746,180.613 734.732,179.374 732.506,177.16L728.204,172.891L956.987,172.891L956.987,133.984L664.009,133.984L664.009,167.962C664.009,171.117 665.261,174.144 667.494,176.374L667.494,176.38ZM1191.8,172.895L1187.5,177.16C1185.28,179.37 1182.26,180.613 1179.13,180.613L1027.21,180.613L1031.51,176.347C1033.73,174.137 1036.75,172.895 1039.88,172.895L1191.8,172.895ZM917.331,6.971C912.868,2.511 906.819,0.003 900.508,0.003L720.491,0.003C714.18,0.003 708.128,2.511 703.667,6.971L664.01,46.628L664.01,132.16L847.774,132.16C854.085,132.16 860.138,129.652 864.598,125.192L907.307,82.482L907.307,66.082L862.725,66.082L838.817,89.804C836.59,92.014 833.577,93.256 830.438,93.256L708.597,93.256L708.597,66.085L732.504,42.363C734.734,40.152 737.744,38.91 740.883,38.91L880.116,38.91C883.255,38.91 886.268,40.152 888.495,42.363L912.402,66.085L912.402,132.163L956.985,132.163L956.985,46.631L917.328,6.974L917.331,6.971ZM1019.5,0.003C1013.19,0.003 1007.13,2.511 1002.67,6.971L963.015,46.628L963.015,132.16L1007.6,132.16L1007.6,108.848L1199.51,108.848C1205.82,108.848 1211.87,106.34 1216.33,101.879L1255.99,62.223L1255.99,0.003L1019.5,0.003ZM409.591,85.535L613.396,85.535L613.396,132.16L657.982,132.16L657.982,0.003L613.396,0.003L613.396,46.628L409.591,46.628L409.591,0.003L365.004,0.003L365.004,132.16L409.591,132.16L409.591,85.535ZM1854,30.931L1854,0.003L1617.5,0.003C1611.19,0.003 1605.14,2.511 1600.68,6.971L1561.02,46.628L1561.02,132.16L1605.61,132.16L1605.61,85.532L1777.12,85.532C1780.26,85.535 1783.27,86.774 1785.5,88.988L1809.41,112.706L1809.41,132.16L1854,132.16L1854,101.232C1854,98.077 1852.74,95.05 1850.51,92.82L1823.77,66.082L1850.51,39.343C1852.74,37.113 1854,34.086 1854,30.931ZM358.975,93.25L319.321,53.596C314.861,49.136 308.808,46.628 302.497,46.628L142.872,46.628C139.733,46.628 136.72,45.386 134.493,43.175L130.192,38.907L358.978,38.907L358.978,0L66,0L66,38.907L105.657,78.564C110.121,83.024 116.17,85.532 122.481,85.532L282.103,85.532C285.241,85.532 288.254,86.771 290.481,88.981L294.783,93.25L66,93.25L66,132.157L358.975,132.157L358.975,93.25ZM1265.5,42.396L1289.19,66.082L1265.5,89.767C1263.27,91.998 1262.02,95.024 1262.02,98.179L1262.02,132.157L1554.99,132.157L1554.99,93.25L1326.21,93.25L1330.51,88.984C1332.74,86.774 1335.75,85.535 1338.89,85.535L1483.03,85.535L1483.03,46.628L1338.89,46.628C1335.75,46.628 1332.74,45.389 1330.52,43.175L1326.21,38.907L1555,38.907L1555,0L1262.02,0L1262.02,33.977C1262.02,37.133 1263.27,40.159 1265.5,42.389L1265.5,42.396ZM358.975,93.25L358.978,93.253L358.975,93.25ZM1039.89,38.913L1211.41,38.913L1211.41,42.769L1187.5,66.491C1185.27,68.701 1182.26,69.944 1179.12,69.944L1007.6,69.944L1007.6,66.085L1031.51,42.366C1033.74,40.156 1036.75,38.913 1039.89,38.913ZM1789.81,38.91L1785.51,43.175C1783.29,45.386 1780.27,46.628 1777.13,46.628L1625.22,46.628L1629.52,42.363C1631.74,40.152 1634.76,38.91 1637.89,38.91L1789.81,38.91Z" style="fill:white;fill-rule:nonzero;"/>
        <g transform="matrix(0.899719,0,0,0.516484,-34220.8,35.1209)">
            <rect x="38035" y="-68" width="2134" height="91"/>
        </g>
    </g>
</svg>
