<?xml version="1.0" encoding="UTF-8" standalone="no"?>
<!DOCTYPE svg PUBLIC "-//W3C//DTD SVG 1.1//EN" "http://www.w3.org/Graphics/SVG/1.1/DTD/svg11.dtd">
<svg width="100%" height="100%" viewBox="0 0 165 434" version="1.1" xmlns="http://www.w3.org/2000/svg" xmlns:xlink="http://www.w3.org/1999/xlink" xml:space="preserve" xmlns:serif="http://www.serif.com/" style="fill-rule:evenodd;clip-rule:evenodd;stroke-linejoin:round;stroke-miterlimit:2;">
    <g transform="matrix(1,0,0,1,-1095,-634)">
        <g transform="matrix(1.00067,0,0,1,1095,634)">
            <g transform="matrix(0.999329,0,0,1,-1094.27,-634)">
                <path d="M1211.57,993.013L1211.58,993.012L1204.9,999.688C1204.15,1000.44 1203.73,1001.46 1203.73,1002.52L1203.73,1029.39C1203.73,1029.92 1203.52,1030.43 1203.14,1030.8L1202.43,1031.53L1202.43,993.012L1195.88,993.012L1195.88,1042.33L1202.43,1042.33L1209.1,1035.66C1209.85,1034.91 1210.28,1033.89 1210.28,1032.83L1210.28,1005.95C1210.28,1005.43 1210.48,1004.92 1210.86,1004.54L1211.57,1003.82L1211.57,1042.33L1218.12,1042.33L1218.12,993.013L1211.57,993.013ZM1225.57,1041.75L1229.56,1037.76L1233.54,1041.75C1233.92,1042.12 1234.43,1042.33 1234.96,1042.33L1240.68,1042.33L1240.68,993.013L1234.13,993.013L1234.13,1031.53L1233.41,1030.8C1233.04,1030.43 1232.83,1029.92 1232.83,1029.39L1232.83,1005.13L1226.28,1005.13L1226.28,1029.39C1226.28,1029.92 1226.07,1030.43 1225.7,1030.8L1224.98,1031.53L1224.98,993.012L1218.43,993.012L1218.43,1042.33L1224.15,1042.33C1224.68,1042.33 1225.19,1042.12 1225.57,1041.75L1225.57,1041.75ZM1210.28,984.492L1210.28,950.182L1218.12,950.182L1218.12,942.676L1195.88,942.676L1195.88,950.182L1203.73,950.182L1203.73,984.492L1195.88,984.492L1195.88,991.998L1218.12,991.998L1218.12,984.492L1210.28,984.492ZM1218.43,950.182L1234.13,950.182L1234.13,951.039L1229.56,955.65L1226.28,955.65L1219.61,962.326C1218.86,963.077 1218.43,964.095 1218.43,965.158L1218.43,991.997L1240.68,991.997L1240.68,984.492L1224.98,984.492L1224.98,968.591C1224.98,968.062 1225.19,967.555 1225.56,967.18L1229.56,963.155L1232,963.155C1232.53,963.155 1233.04,962.945 1233.42,962.569L1240.68,955.306L1240.68,942.677L1218.43,942.677L1218.43,950.182ZM1225.57,941.075L1229.56,937.088L1233.54,941.075C1233.92,941.45 1234.43,941.662 1234.96,941.662L1240.68,941.662L1240.68,892.341L1234.13,892.341L1234.13,930.855L1233.41,930.131C1233.04,929.756 1232.83,929.249 1232.83,928.721L1232.83,904.456L1226.28,904.456L1226.28,928.72C1226.28,929.249 1226.07,929.756 1225.7,930.131L1224.98,930.855L1224.98,892.341L1218.43,892.341L1218.43,941.662L1224.15,941.662C1224.68,941.662 1225.19,941.451 1225.57,941.075L1225.57,941.075ZM1197.05,899.016C1196.3,899.768 1195.88,900.786 1195.88,901.849L1195.88,932.153C1195.88,933.216 1196.3,934.235 1197.05,934.986L1203.73,941.662L1218.12,941.662L1218.12,910.726C1218.12,909.664 1217.7,908.645 1216.95,907.894L1209.76,900.704L1207,900.704L1207,908.209L1210.99,912.234C1211.37,912.609 1211.58,913.116 1211.58,913.644L1211.58,934.156L1207,934.156L1203.01,930.131C1202.64,929.756 1202.43,929.249 1202.43,928.721L1202.43,905.281C1202.43,904.753 1202.64,904.246 1203.01,903.871L1207,899.846L1218.12,899.846L1218.12,892.341L1203.73,892.341L1197.05,899.017L1197.05,899.016ZM1223.69,842.006L1223.64,842.005L1218.43,842.005L1218.43,881.818C1218.43,882.88 1218.86,883.899 1219.61,884.65L1226.28,891.326L1240.68,891.326L1240.68,883.821L1232.83,883.821L1232.83,854.946C1232.83,854.418 1233.04,853.911 1233.41,853.536L1237.4,849.511L1240.68,849.511L1240.68,842.005L1235.47,842.005C1234.94,842.005 1234.43,842.217 1234.06,842.592L1229.56,847.093L1225.06,842.592C1224.69,842.228 1224.2,842.019 1223.69,842.006ZM1195.88,881.818C1195.88,882.88 1196.3,883.899 1197.05,884.65L1203.73,891.326L1218.12,891.326L1218.12,883.821L1214.2,883.821L1214.2,851.513C1214.2,850.451 1213.78,849.432 1213.03,848.681L1206.35,842.005L1195.88,842.005L1195.88,881.818ZM1203.08,849.51L1207.07,853.535C1207.44,853.91 1207.65,854.417 1207.65,854.946L1207.65,883.82L1207,883.82L1203.01,879.795C1202.64,879.42 1202.43,878.913 1202.43,878.385L1202.43,849.51L1203.08,849.51ZM1224.98,852.811L1225.7,853.534C1226.07,853.909 1226.28,854.416 1226.28,854.945L1226.28,880.519L1225.56,879.796C1225.19,879.421 1224.98,878.913 1224.98,878.385L1224.98,852.811ZM1203.01,840.404L1207,836.416L1210.99,840.404C1211.36,840.779 1211.87,840.99 1212.4,840.99L1218.12,840.99L1218.12,791.67L1211.57,791.67L1211.57,830.184L1210.86,829.46C1210.48,829.085 1210.28,828.578 1210.28,828.049L1210.28,803.785L1203.73,803.785L1203.73,828.049C1203.73,828.577 1203.52,829.084 1203.14,829.459L1202.43,830.183L1202.43,791.669L1195.88,791.669L1195.88,840.99L1201.6,840.99C1202.13,840.99 1202.64,840.78 1203.01,840.404L1203.01,840.404ZM1219.61,834.314L1226.28,840.99L1232.83,840.99L1239.51,834.314C1240.26,833.563 1240.68,832.544 1240.68,831.482L1240.68,791.669L1234.13,791.669L1227.45,798.345C1226.7,799.096 1226.28,800.115 1226.28,801.178L1226.28,828.874L1232.83,828.874L1232.83,804.61C1232.83,804.082 1233.04,803.575 1233.41,803.2L1234.13,802.476L1234.13,828.874L1229.56,833.485L1225.56,829.46C1225.19,829.085 1224.98,828.578 1224.98,828.05L1224.98,791.67L1218.43,791.67L1218.43,831.482C1218.43,832.544 1218.86,833.563 1219.61,834.314ZM1201.13,741.334L1201.08,741.334L1195.88,741.334L1195.88,781.146C1195.88,782.209 1196.3,783.228 1197.05,783.979L1203.73,790.655L1218.12,790.655L1218.12,783.149L1210.28,783.149L1210.28,754.275C1210.28,753.747 1210.48,753.24 1210.86,752.864L1214.85,748.84L1218.12,748.84L1218.12,741.334L1212.92,741.334C1212.39,741.334 1211.88,741.545 1211.5,741.921L1207,746.422L1202.5,741.921C1202.14,741.557 1201.65,741.347 1201.13,741.334ZM1224.2,741.334L1224.15,741.334L1218.43,741.334L1218.43,748.839L1221.71,748.839L1225.7,752.864C1226.07,753.238 1226.28,753.746 1226.28,754.274L1226.28,777.713C1226.28,778.242 1226.07,778.749 1225.7,779.124L1221.71,783.148L1218.43,783.148L1218.43,790.654L1224.98,790.654L1231.66,783.978C1232.41,783.227 1232.83,782.208 1232.83,781.146L1232.83,754.274C1232.83,753.746 1233.04,753.238 1233.41,752.864L1237.41,748.839L1240.68,748.839L1240.68,741.334L1234.96,741.334C1234.43,741.334 1233.92,741.544 1233.54,741.92L1229.56,745.908L1225.57,741.92C1225.2,741.557 1224.71,741.347 1224.2,741.334ZM1202.43,752.139L1203.14,752.863C1203.52,753.238 1203.73,753.745 1203.73,754.273L1203.73,779.848L1203.01,779.124C1202.64,778.749 1202.43,778.242 1202.43,777.714L1202.43,752.139ZM1102.71,690.633L1113.87,701.793C1115.12,703.048 1116.83,703.753 1118.6,703.753L1153.85,703.753C1155.62,703.753 1157.33,703.048 1158.58,701.793L1169.74,690.633L1169.74,685.158L1177.45,677.512L1177.45,666.563L1170.32,666.563L1157.19,679.684L1157.19,685.158L1150.47,691.834C1149.84,692.456 1148.99,692.806 1148.11,692.806L1124.34,692.806C1123.46,692.806 1122.61,692.457 1121.98,691.834L1115.26,685.158L1115.26,679.684L1102.13,666.563L1095,666.563L1095,677.512L1102.71,685.158L1102.71,690.633ZM1259.89,677.513L1259.89,666.563L1254.14,666.563C1253.26,666.563 1252.4,666.916 1251.78,667.544L1239.64,679.684L1239.64,685.158L1189.99,685.158L1196.72,678.483C1197.35,677.861 1198.19,677.512 1199.08,677.512L1203.97,677.512L1203.97,666.563L1193.34,666.563C1191.56,666.563 1189.86,667.269 1188.6,668.524L1177.44,679.684L1177.44,696.106L1239.64,696.106L1247.34,703.753L1259.89,703.753L1259.89,698.278L1252.19,690.579L1252.19,685.151L1259.89,677.513Z" style="fill:white;fill-rule:nonzero;"/>
            </g>
        </g>
        <g transform="matrix(1.00067,0,0,1,1095,634)">
            <g transform="matrix(3.40234e-17,-0.556017,1.08008,6.61804e-17,-1559.64,2598.27)">
                <path d="M4673,1444L4432,1444L4432,1521L4673,1521L4673,1444ZM4670.6,1445.23L4670.6,1519.77C4670.6,1519.77 4434.4,1519.77 4434.4,1519.77C4434.4,1519.77 4434.4,1445.23 4434.4,1445.23L4670.6,1445.23Z" style="fill:rgb(77,77,77);"/>
            </g>
        </g>
        <g transform="matrix(1.00067,0,0,1,1095,634)">
            <g transform="matrix(2.10742e-17,-0.344398,1.08008,6.61804e-17,-1477.92,1609.37)">
                <path d="M4673,1444L4432,1444L4432,1521L4673,1521L4673,1444ZM4669.13,1445.23L4669.13,1519.77C4669.13,1519.77 4435.87,1519.77 4435.87,1519.77C4435.87,1519.77 4435.87,1445.23 4435.87,1445.23L4669.13,1445.23Z" style="fill:rgb(77,77,77);"/>
            </g>
        </g>
        <g transform="matrix(1.00067,0,0,1,1095,634)">
            <g transform="matrix(8.93748e-17,-1.46058,1.08009,6.61808e-17,-1477.93,6907.29)">
                <path d="M4673,1444L4432,1444L4432,1521L4673,1521L4673,1444ZM4672.09,1445.23L4672.09,1519.77C4672.09,1519.77 4448.99,1519.77 4432.91,1519.77C4432.91,1519.77 4432.91,1445.23 4432.91,1445.23C4432.91,1445.23 4672.09,1445.23 4672.09,1445.23Z" style="fill:rgb(77,77,77);"/>
            </g>
        </g>
    </g>
</svg>
