<?xml version="1.0" encoding="UTF-8" standalone="no"?>
<!DOCTYPE svg PUBLIC "-//W3C//DTD SVG 1.1//EN" "http://www.w3.org/Graphics/SVG/1.1/DTD/svg11.dtd">
<svg width="100%" height="100%" viewBox="0 0 130 130" version="1.1" xmlns="http://www.w3.org/2000/svg" xmlns:xlink="http://www.w3.org/1999/xlink" xml:space="preserve" xmlns:serif="http://www.serif.com/" style="fill-rule:evenodd;clip-rule:evenodd;stroke-linejoin:round;stroke-miterlimit:2;">
    <g transform="matrix(0.75,0,0,0.75,0,8.52651e-14)">
        <g transform="matrix(1.01765,0,0,1.01765,-43949.1,-713.371)">
            <circle cx="43272" cy="786" r="85"/>
        </g>
        <g transform="matrix(1.01765,0,0,1.01765,-43949.1,-713.371)">
            <path d="M43272,701C43318.9,701 43357,739.087 43357,786C43357,832.913 43318.9,871 43272,871C43225.1,871 43187,832.913 43187,786C43187,739.087 43225.1,701 43272,701ZM43272,705.913C43316.2,705.913 43352.1,741.799 43352.1,786C43352.1,830.201 43316.2,866.087 43272,866.087C43227.8,866.087 43191.9,830.201 43191.9,786C43191.9,741.799 43227.8,705.913 43272,705.913Z" style="fill:white;"/>
        </g>
    </g>
</svg>
