<?xml version="1.0" encoding="UTF-8" standalone="no"?>
<!DOCTYPE svg PUBLIC "-//W3C//DTD SVG 1.1//EN" "http://www.w3.org/Graphics/SVG/1.1/DTD/svg11.dtd">
<svg width="100%" height="100%" viewBox="0 0 165 434" version="1.1" xmlns="http://www.w3.org/2000/svg" xmlns:xlink="http://www.w3.org/1999/xlink" xml:space="preserve" xmlns:serif="http://www.serif.com/" style="fill-rule:evenodd;clip-rule:evenodd;stroke-linejoin:round;stroke-miterlimit:2;">
    <g transform="matrix(1,0,0,1,-1460,-634)">
        <g transform="matrix(1.00067,0,0,1,1460,634)">
            <g transform="matrix(0.999329,0,0,1,-1459.02,-634)">
                <path d="M1576.57,993.013L1576.58,993.012L1569.9,999.688C1569.15,1000.44 1568.73,1001.46 1568.73,1002.52L1568.73,1029.39C1568.73,1029.92 1568.52,1030.43 1568.14,1030.8L1567.43,1031.53L1567.43,993.012L1560.88,993.012L1560.88,1042.33L1567.43,1042.33L1574.1,1035.66C1574.85,1034.91 1575.28,1033.89 1575.28,1032.83L1575.28,1005.95C1575.28,1005.43 1575.48,1004.92 1575.86,1004.54L1576.57,1003.82L1576.57,1042.33L1583.12,1042.33L1583.12,993.013L1576.57,993.013ZM1590.57,1041.75L1594.56,1037.76L1598.54,1041.75C1598.92,1042.12 1599.43,1042.33 1599.96,1042.33L1605.68,1042.33L1605.68,993.013L1599.13,993.013L1599.13,1031.53L1598.41,1030.8C1598.04,1030.43 1597.83,1029.92 1597.83,1029.39L1597.83,1005.13L1591.28,1005.13L1591.28,1029.39C1591.28,1029.92 1591.07,1030.43 1590.7,1030.8L1589.98,1031.53L1589.98,993.012L1583.43,993.012L1583.43,1042.33L1589.15,1042.33C1589.68,1042.33 1590.19,1042.12 1590.57,1041.75L1590.57,1041.75ZM1575.28,984.492L1575.28,950.182L1583.12,950.182L1583.12,942.676L1560.88,942.676L1560.88,950.182L1568.73,950.182L1568.73,984.492L1560.88,984.492L1560.88,991.998L1583.12,991.998L1583.12,984.492L1575.28,984.492ZM1583.43,950.182L1599.13,950.182L1599.13,951.039L1594.56,955.65L1591.28,955.65L1584.61,962.326C1583.86,963.077 1583.43,964.095 1583.43,965.158L1583.43,991.997L1605.68,991.997L1605.68,984.492L1589.98,984.492L1589.98,968.591C1589.98,968.062 1590.19,967.555 1590.56,967.18L1594.56,963.155L1597,963.155C1597.53,963.155 1598.04,962.945 1598.42,962.569L1605.68,955.306L1605.68,942.677L1583.43,942.677L1583.43,950.182ZM1590.57,941.075L1594.56,937.088L1598.54,941.075C1598.92,941.45 1599.43,941.662 1599.96,941.662L1605.68,941.662L1605.68,892.341L1599.13,892.341L1599.13,930.855L1598.41,930.131C1598.04,929.756 1597.83,929.249 1597.83,928.721L1597.83,904.456L1591.28,904.456L1591.28,928.72C1591.28,929.249 1591.07,929.756 1590.7,930.131L1589.98,930.855L1589.98,892.341L1583.43,892.341L1583.43,941.662L1589.15,941.662C1589.68,941.662 1590.19,941.451 1590.57,941.075L1590.57,941.075ZM1562.05,899.016C1561.3,899.768 1560.88,900.786 1560.88,901.849L1560.88,932.153C1560.88,933.216 1561.3,934.235 1562.05,934.986L1568.73,941.662L1583.12,941.662L1583.12,910.726C1583.12,909.664 1582.7,908.645 1581.95,907.894L1574.76,900.704L1572,900.704L1572,908.209L1575.99,912.234C1576.37,912.609 1576.58,913.116 1576.58,913.644L1576.58,934.156L1572,934.156L1568.01,930.131C1567.64,929.756 1567.43,929.249 1567.43,928.721L1567.43,905.281C1567.43,904.753 1567.64,904.246 1568.01,903.871L1572,899.846L1583.12,899.846L1583.12,892.341L1568.73,892.341L1562.05,899.017L1562.05,899.016ZM1588.69,842.006L1588.64,842.005L1583.43,842.005L1583.43,881.818C1583.43,882.88 1583.86,883.899 1584.61,884.65L1591.28,891.326L1605.68,891.326L1605.68,883.821L1597.83,883.821L1597.83,854.946C1597.83,854.418 1598.04,853.911 1598.41,853.536L1602.4,849.511L1605.68,849.511L1605.68,842.005L1600.47,842.005C1599.94,842.005 1599.43,842.217 1599.06,842.592L1594.56,847.093L1590.06,842.592C1589.69,842.228 1589.2,842.019 1588.69,842.006ZM1560.88,881.818C1560.88,882.88 1561.3,883.899 1562.05,884.65L1568.73,891.326L1583.12,891.326L1583.12,883.821L1579.2,883.821L1579.2,851.513C1579.2,850.451 1578.78,849.432 1578.03,848.681L1571.35,842.005L1560.88,842.005L1560.88,881.818ZM1568.08,849.51L1572.07,853.535C1572.44,853.91 1572.65,854.417 1572.65,854.946L1572.65,883.82L1572,883.82L1568.01,879.795C1567.64,879.42 1567.43,878.913 1567.43,878.385L1567.43,849.51L1568.08,849.51ZM1589.98,852.811L1590.7,853.534C1591.07,853.909 1591.28,854.416 1591.28,854.945L1591.28,880.519L1590.56,879.796C1590.19,879.421 1589.98,878.913 1589.98,878.385L1589.98,852.811ZM1568.01,840.404L1572,836.416L1575.99,840.404C1576.36,840.779 1576.87,840.99 1577.4,840.99L1583.12,840.99L1583.12,791.67L1576.57,791.67L1576.57,830.184L1575.86,829.46C1575.48,829.085 1575.28,828.578 1575.28,828.049L1575.28,803.785L1568.73,803.785L1568.73,828.049C1568.73,828.577 1568.52,829.084 1568.14,829.459L1567.43,830.183L1567.43,791.669L1560.88,791.669L1560.88,840.99L1566.6,840.99C1567.13,840.99 1567.64,840.78 1568.01,840.404L1568.01,840.404ZM1584.61,834.314L1591.28,840.99L1597.83,840.99L1604.51,834.314C1605.26,833.563 1605.68,832.544 1605.68,831.482L1605.68,791.669L1599.13,791.669L1592.45,798.345C1591.7,799.096 1591.28,800.115 1591.28,801.178L1591.28,828.874L1597.83,828.874L1597.83,804.61C1597.83,804.082 1598.04,803.575 1598.41,803.2L1599.13,802.476L1599.13,828.874L1594.56,833.485L1590.56,829.46C1590.19,829.085 1589.98,828.578 1589.98,828.05L1589.98,791.67L1583.43,791.67L1583.43,831.482C1583.43,832.544 1583.86,833.563 1584.61,834.314ZM1566.13,741.334L1566.08,741.334L1560.88,741.334L1560.88,781.146C1560.88,782.209 1561.3,783.228 1562.05,783.979L1568.73,790.655L1583.12,790.655L1583.12,783.149L1575.28,783.149L1575.28,754.275C1575.28,753.747 1575.48,753.24 1575.86,752.864L1579.85,748.84L1583.12,748.84L1583.12,741.334L1577.92,741.334C1577.39,741.334 1576.88,741.545 1576.5,741.921L1572,746.422L1567.5,741.921C1567.14,741.557 1566.65,741.347 1566.13,741.334ZM1589.2,741.334L1589.15,741.334L1583.43,741.334L1583.43,748.839L1586.71,748.839L1590.7,752.864C1591.07,753.238 1591.28,753.746 1591.28,754.274L1591.28,777.713C1591.28,778.242 1591.07,778.749 1590.7,779.124L1586.71,783.148L1583.43,783.148L1583.43,790.654L1589.98,790.654L1596.66,783.978C1597.41,783.227 1597.83,782.208 1597.83,781.146L1597.83,754.274C1597.83,753.746 1598.04,753.238 1598.41,752.864L1602.41,748.839L1605.68,748.839L1605.68,741.334L1599.96,741.334C1599.43,741.334 1598.92,741.544 1598.54,741.92L1594.56,745.908L1590.57,741.92C1590.2,741.557 1589.72,741.347 1589.2,741.334ZM1567.43,752.139L1568.14,752.863C1568.52,753.238 1568.73,753.745 1568.73,754.273L1568.73,779.848L1568.01,779.124C1567.64,778.749 1567.43,778.242 1567.43,777.714L1567.43,752.139ZM1624.89,666.563L1535.32,666.563L1522.19,679.684L1522.19,685.158L1515.47,691.834C1514.84,692.456 1513.99,692.806 1513.11,692.806L1489.34,692.806C1488.46,692.806 1487.61,692.457 1486.98,691.834L1480.26,685.158L1480.26,679.684L1467.13,666.563L1460,666.563L1460,677.512L1467.71,685.158L1467.71,690.633L1478.87,701.793C1480.12,703.048 1481.83,703.753 1483.6,703.753L1518.85,703.753C1520.62,703.753 1522.33,703.048 1523.58,701.793L1534.74,690.633L1534.74,685.158L1542.45,677.513L1553.6,688.671C1554.86,689.927 1556.56,690.632 1558.34,690.632L1603.26,690.632C1604.14,690.632 1604.99,690.981 1605.61,691.603L1606.83,692.804L1542.44,692.804L1542.44,703.753L1624.89,703.753L1624.89,692.804L1613.73,681.645C1612.47,680.389 1610.77,679.684 1609,679.684L1564.08,679.684C1563.19,679.684 1562.35,679.335 1561.72,678.712L1560.51,677.511L1624.89,677.511L1624.89,666.563Z" style="fill:white;fill-rule:nonzero;"/>
            </g>
        </g>
        <g transform="matrix(1.00067,0,0,1,1460,634)">
            <g transform="matrix(3.40234e-17,-0.556017,1.08008,6.61804e-17,-1559.64,2598.27)">
                <path d="M4673,1444L4432,1444L4432,1521L4673,1521L4673,1444ZM4670.6,1445.23L4670.6,1519.77C4670.6,1519.77 4434.4,1519.77 4434.4,1519.77C4434.4,1519.77 4434.4,1445.23 4434.4,1445.23L4670.6,1445.23Z" style="fill:rgb(77,77,77);"/>
            </g>
        </g>
        <g transform="matrix(1.00067,0,0,1,1460,634)">
            <g transform="matrix(2.10742e-17,-0.344398,1.08008,6.61804e-17,-1477.92,1609.37)">
                <path d="M4673,1444L4432,1444L4432,1521L4673,1521L4673,1444ZM4669.13,1445.23L4669.13,1519.77C4669.13,1519.77 4435.87,1519.77 4435.87,1519.77C4435.87,1519.77 4435.87,1445.23 4435.87,1445.23L4669.13,1445.23Z" style="fill:rgb(77,77,77);"/>
            </g>
        </g>
        <g transform="matrix(1.00067,0,0,1,1460,634)">
            <g transform="matrix(8.93748e-17,-1.46058,1.08009,6.61808e-17,-1477.93,6907.29)">
                <path d="M4673,1444L4432,1444L4432,1521L4673,1521L4673,1444ZM4672.09,1445.23L4672.09,1519.77C4672.09,1519.77 4432.91,1519.77 4432.91,1519.77C4432.91,1519.77 4432.91,1445.23 4432.91,1445.23C4432.91,1445.23 4672.09,1445.23 4672.09,1445.23Z" style="fill:rgb(77,77,77);"/>
            </g>
        </g>
    </g>
</svg>
