<?xml version="1.0" encoding="UTF-8" standalone="no"?>
<!DOCTYPE svg PUBLIC "-//W3C//DTD SVG 1.1//EN" "http://www.w3.org/Graphics/SVG/1.1/DTD/svg11.dtd">
<svg width="100%" height="100%" viewBox="0 0 165 434" version="1.1" xmlns="http://www.w3.org/2000/svg" xmlns:xlink="http://www.w3.org/1999/xlink" xml:space="preserve" xmlns:serif="http://www.serif.com/" style="fill-rule:evenodd;clip-rule:evenodd;stroke-linejoin:round;stroke-miterlimit:2;">
    <g transform="matrix(1,0,0,1,2.27374e-13,-634)">
        <g transform="matrix(1.00067,0,0,1,0,634)">
            <g transform="matrix(0.999329,0,0,1,0,-634)">
                <path d="M116.574,993.013L116.575,993.012L109.899,999.688C109.148,1000.44 108.726,1001.46 108.726,1002.52L108.726,1029.39C108.726,1029.92 108.517,1030.43 108.145,1030.8L107.426,1031.53L107.426,993.012L100.876,993.012L100.876,1042.33L107.426,1042.33L114.102,1035.66C114.853,1034.91 115.275,1033.89 115.275,1032.83L115.275,1005.95C115.275,1005.43 115.484,1004.92 115.856,1004.54L116.574,1003.82L116.574,1042.33L123.124,1042.33L123.124,993.013L116.574,993.013ZM130.569,1041.75L134.556,1037.76L138.544,1041.75C138.919,1042.12 139.429,1042.33 139.96,1042.33L145.68,1042.33L145.68,993.013L139.13,993.013L139.13,1031.53L138.412,1030.8C138.04,1030.43 137.831,1029.92 137.831,1029.39L137.831,1005.13L131.281,1005.13L131.281,1029.39C131.281,1029.92 131.073,1030.43 130.7,1030.8L129.982,1031.53L129.982,993.012L123.432,993.012L123.432,1042.33L129.152,1042.33C129.683,1042.33 130.192,1042.12 130.568,1041.75L130.569,1041.75ZM115.276,984.492L115.276,950.182L123.125,950.182L123.125,942.676L100.877,942.676L100.877,950.182L108.726,950.182L108.726,984.492L100.877,984.492L100.877,991.998L123.125,991.998L123.125,984.492L115.276,984.492ZM123.432,950.182L139.13,950.182L139.13,951.039L134.556,955.65L131.281,955.65L124.605,962.326C123.855,963.077 123.432,964.095 123.432,965.158L123.432,991.997L145.68,991.997L145.68,984.492L129.982,984.492L129.982,968.591C129.982,968.062 130.191,967.555 130.563,967.18L134.557,963.155L137.002,963.155C137.533,963.155 138.043,962.945 138.418,962.569L145.68,955.306L145.68,942.677L123.432,942.677L123.432,950.182ZM130.569,941.075L134.556,937.088L138.544,941.075C138.919,941.45 139.429,941.662 139.96,941.662L145.68,941.662L145.68,892.341L139.13,892.341L139.13,930.855L138.412,930.131C138.04,929.756 137.831,929.249 137.831,928.721L137.831,904.456L131.281,904.456L131.281,928.72C131.281,929.249 131.073,929.756 130.7,930.131L129.982,930.855L129.982,892.341L123.432,892.341L123.432,941.662L129.152,941.662C129.683,941.662 130.192,941.451 130.568,941.075L130.569,941.075ZM102.05,899.016C101.299,899.768 100.877,900.786 100.877,901.849L100.877,932.153C100.877,933.216 101.299,934.235 102.05,934.986L108.726,941.662L123.125,941.662L123.125,910.726C123.125,909.664 122.703,908.645 121.952,907.894L114.762,900.704L112.001,900.704L112.001,908.209L115.994,912.234C116.366,912.609 116.575,913.116 116.575,913.644L116.575,934.156L112.001,934.156L108.008,930.131C107.636,929.756 107.427,929.249 107.427,928.721L107.427,905.281C107.427,904.753 107.636,904.246 108.008,903.871L112.001,899.846L123.125,899.846L123.125,892.341L108.726,892.341L102.05,899.017L102.05,899.016ZM128.689,842.006L128.639,842.005L123.432,842.005L123.432,881.818C123.432,882.88 123.855,883.899 124.605,884.65L131.281,891.326L145.68,891.326L145.68,883.821L137.831,883.821L137.831,854.946C137.831,854.418 138.04,853.911 138.412,853.536L142.405,849.511L145.68,849.511L145.68,842.005L140.474,842.005C139.942,842.005 139.433,842.217 139.058,842.592L134.556,847.093L130.055,842.592C129.691,842.228 129.202,842.019 128.689,842.006ZM100.877,881.818C100.877,882.88 101.299,883.899 102.05,884.65L108.726,891.326L123.125,891.326L123.125,883.821L119.2,883.821L119.2,851.513C119.2,850.451 118.778,849.432 118.027,848.681L111.351,842.005L100.877,842.005L100.877,881.818ZM108.076,849.51L112.07,853.535C112.442,853.91 112.651,854.417 112.651,854.946L112.651,883.82L112.001,883.82L108.008,879.795C107.636,879.42 107.427,878.913 107.427,878.385L107.427,849.51L108.076,849.51ZM129.982,852.811L130.7,853.534C131.072,853.909 131.281,854.416 131.281,854.945L131.281,880.519L130.563,879.796C130.191,879.421 129.982,878.913 129.982,878.385L129.982,852.811ZM108.013,840.404L112.001,836.416L115.988,840.404C116.364,840.779 116.873,840.99 117.404,840.99L123.124,840.99L123.124,791.67L116.574,791.67L116.574,830.184L115.856,829.46C115.484,829.085 115.276,828.578 115.276,828.049L115.276,803.785L108.726,803.785L108.726,828.049C108.726,828.577 108.517,829.084 108.145,829.459L107.426,830.183L107.426,791.669L100.876,791.669L100.876,840.99L106.596,840.99C107.127,840.99 107.637,840.78 108.012,840.404L108.013,840.404ZM124.606,834.314L131.282,840.99L137.832,840.99L144.507,834.314C145.258,833.563 145.68,832.544 145.68,831.482L145.68,791.669L139.131,791.669L132.455,798.345C131.704,799.096 131.282,800.115 131.282,801.178L131.282,828.874L137.832,828.874L137.832,804.61C137.832,804.082 138.04,803.575 138.413,803.2L139.132,802.476L139.132,828.874L134.557,833.485L130.564,829.46C130.192,829.085 129.983,828.578 129.983,828.05L129.983,791.67L123.433,791.67L123.433,831.482C123.433,832.544 123.855,833.563 124.606,834.314ZM106.133,741.334L106.083,741.334L100.877,741.334L100.877,781.146C100.877,782.209 101.299,783.228 102.05,783.979L108.726,790.655L123.125,790.655L123.125,783.149L115.275,783.149L115.275,754.275C115.276,753.747 115.484,753.24 115.857,752.864L119.85,748.84L123.125,748.84L123.125,741.334L117.918,741.334C117.387,741.334 116.877,741.545 116.502,741.921L112.001,746.422L107.499,741.921C107.136,741.557 106.646,741.347 106.133,741.334ZM129.202,741.334L129.152,741.334L123.432,741.334L123.432,748.839L126.707,748.839L130.701,752.864C131.073,753.238 131.282,753.746 131.282,754.274L131.282,777.713C131.282,778.242 131.073,778.749 130.701,779.124L126.707,783.148L123.432,783.148L123.432,790.654L129.982,790.654L136.658,783.978C137.409,783.227 137.831,782.208 137.831,781.146L137.831,754.274C137.831,753.746 138.04,753.238 138.412,752.864L142.406,748.839L145.68,748.839L145.68,741.334L139.96,741.334C139.429,741.334 138.92,741.544 138.544,741.92L134.556,745.908L130.568,741.92C130.205,741.557 129.715,741.347 129.202,741.334ZM107.427,752.139L108.145,752.863C108.517,753.238 108.726,753.745 108.726,754.273L108.726,779.848L108.008,779.124C107.636,778.749 107.427,778.242 107.427,777.714L107.427,752.139ZM114.045,666.563L75.315,666.563L62.194,679.684L62.194,685.158L55.466,691.834C54.84,692.456 53.992,692.806 53.108,692.806L29.34,692.806C28.457,692.806 27.609,692.457 26.982,691.834L20.255,685.158L20.255,679.684L7.134,666.563L0,666.563L0,677.512L7.707,685.158L7.707,690.633L18.867,701.793C20.122,703.048 21.825,703.753 23.601,703.753L58.846,703.753C60.622,703.753 62.325,703.048 63.58,701.793L74.74,690.633L74.74,685.158L82.447,677.512L82.447,677.512L108.308,677.512C109.191,677.512 110.039,677.86 110.666,678.483L117.393,685.159L117.393,692.805L82.445,692.805L82.445,703.753L148.995,703.753C150.771,703.753 152.474,703.048 153.729,701.793L164.888,690.633L164.888,685.159L152.343,685.159L152.342,685.158L145.614,691.832C144.987,692.455 144.14,692.804 143.256,692.804L129.939,692.804L129.939,679.684L118.779,668.524C117.524,667.269 115.821,666.563 114.045,666.563Z" style="fill:white;fill-rule:nonzero;"/>
            </g>
        </g>
        <g transform="matrix(1.00067,0,0,1,0,634)">
            <g transform="matrix(3.40234e-17,-0.556017,1.08008,6.61804e-17,-1559.64,2598.27)">
                <path d="M4673,1444L4432,1444L4432,1521L4673,1521L4673,1444ZM4670.6,1445.23L4670.6,1519.77C4670.6,1519.77 4434.4,1519.77 4434.4,1519.77C4434.4,1519.77 4434.4,1445.23 4434.4,1445.23L4670.6,1445.23Z" style="fill:rgb(77,77,77);"/>
            </g>
        </g>
        <g transform="matrix(1.00067,0,0,1,0,634)">
            <g transform="matrix(2.10742e-17,-0.344398,1.08008,6.61804e-17,-1477.92,1609.37)">
                <path d="M4673,1444L4432,1444L4432,1521L4673,1521L4673,1444ZM4669.13,1445.23L4669.13,1519.77C4669.13,1519.77 4435.87,1519.77 4435.87,1519.77C4435.87,1519.77 4435.87,1445.23 4435.87,1445.23L4669.13,1445.23Z" style="fill:rgb(77,77,77);"/>
            </g>
        </g>
        <g transform="matrix(1.00067,0,0,1,0,634)">
            <g transform="matrix(8.93748e-17,-1.46058,1.08009,6.61808e-17,-1477.93,6907.29)">
                <path d="M4673,1444L4432,1444L4432,1521L4673,1521L4673,1444ZM4672.09,1445.23L4672.09,1519.77C4656.58,1519.77 4448.42,1519.77 4432.91,1519.77C4432.91,1519.77 4432.91,1445.23 4432.91,1445.23C4448.99,1445.23 4672.09,1445.23 4672.09,1445.23Z" style="fill:rgb(77,77,77);"/>
            </g>
        </g>
    </g>
</svg>
