<?xml version="1.0" encoding="UTF-8" standalone="no"?>
<!DOCTYPE svg PUBLIC "-//W3C//DTD SVG 1.1//EN" "http://www.w3.org/Graphics/SVG/1.1/DTD/svg11.dtd">
<svg width="100%" height="100%" viewBox="0 0 165 434" version="1.1" xmlns="http://www.w3.org/2000/svg" xmlns:xlink="http://www.w3.org/1999/xlink" xml:space="preserve" xmlns:serif="http://www.serif.com/" style="fill-rule:evenodd;clip-rule:evenodd;stroke-linejoin:round;stroke-miterlimit:2;">
    <g transform="matrix(1,0,0,1,-730,-634)">
        <g transform="matrix(1.00067,0,0,1,730,634)">
            <g transform="matrix(0.999329,0,0,1,-729.51,-634)">
                <path d="M846.574,993.013L846.575,993.012L839.899,999.688C839.148,1000.44 838.726,1001.46 838.726,1002.52L838.726,1029.39C838.726,1029.92 838.517,1030.43 838.145,1030.8L837.426,1031.53L837.426,993.012L830.876,993.012L830.876,1042.33L837.426,1042.33L844.102,1035.66C844.853,1034.91 845.275,1033.89 845.275,1032.83L845.275,1005.95C845.275,1005.43 845.484,1004.92 845.856,1004.54L846.574,1003.82L846.574,1042.33L853.124,1042.33L853.124,993.013L846.574,993.013ZM860.569,1041.75L864.556,1037.76L868.544,1041.75C868.919,1042.12 869.429,1042.33 869.96,1042.33L875.68,1042.33L875.68,993.013L869.13,993.013L869.13,1031.53L868.412,1030.8C868.04,1030.43 867.831,1029.92 867.831,1029.39L867.831,1005.13L861.281,1005.13L861.281,1029.39C861.281,1029.92 861.073,1030.43 860.7,1030.8L859.982,1031.53L859.982,993.012L853.432,993.012L853.432,1042.33L859.152,1042.33C859.683,1042.33 860.192,1042.12 860.568,1041.75L860.569,1041.75ZM845.276,984.492L845.276,950.182L853.125,950.182L853.125,942.676L830.877,942.676L830.877,950.182L838.726,950.182L838.726,984.492L830.877,984.492L830.877,991.998L853.125,991.998L853.125,984.492L845.276,984.492ZM853.432,950.182L869.13,950.182L869.13,951.039L864.556,955.65L861.281,955.65L854.605,962.326C853.855,963.077 853.432,964.095 853.432,965.158L853.432,991.997L875.68,991.997L875.68,984.492L859.982,984.492L859.982,968.591C859.982,968.062 860.191,967.555 860.563,967.18L864.557,963.155L867.002,963.155C867.533,963.155 868.043,962.945 868.418,962.569L875.68,955.306L875.68,942.677L853.432,942.677L853.432,950.182ZM860.569,941.075L864.556,937.088L868.544,941.075C868.919,941.45 869.429,941.662 869.96,941.662L875.68,941.662L875.68,892.341L869.13,892.341L869.13,930.855L868.412,930.131C868.04,929.756 867.831,929.249 867.831,928.721L867.831,904.456L861.281,904.456L861.281,928.72C861.281,929.249 861.073,929.756 860.7,930.131L859.982,930.855L859.982,892.341L853.432,892.341L853.432,941.662L859.152,941.662C859.683,941.662 860.192,941.451 860.568,941.075L860.569,941.075ZM832.05,899.016C831.299,899.768 830.877,900.786 830.877,901.849L830.877,932.153C830.877,933.216 831.299,934.235 832.05,934.986L838.726,941.662L853.125,941.662L853.125,910.726C853.125,909.664 852.703,908.645 851.952,907.894L844.762,900.704L842.001,900.704L842.001,908.209L845.994,912.234C846.366,912.609 846.575,913.116 846.575,913.644L846.575,934.156L842.001,934.156L838.008,930.131C837.636,929.756 837.427,929.249 837.427,928.721L837.427,905.281C837.427,904.753 837.636,904.246 838.008,903.871L842.001,899.846L853.125,899.846L853.125,892.341L838.726,892.341L832.05,899.017L832.05,899.016ZM858.689,842.006L858.639,842.005L853.432,842.005L853.432,881.818C853.432,882.88 853.855,883.899 854.605,884.65L861.281,891.326L875.68,891.326L875.68,883.821L867.831,883.821L867.831,854.946C867.831,854.418 868.04,853.911 868.412,853.536L872.405,849.511L875.68,849.511L875.68,842.005L870.474,842.005C869.942,842.005 869.433,842.217 869.058,842.592L864.556,847.093L860.055,842.592C859.691,842.228 859.202,842.019 858.689,842.006ZM830.877,881.818C830.877,882.88 831.299,883.899 832.05,884.65L838.726,891.326L853.125,891.326L853.125,883.821L849.2,883.821L849.2,851.513C849.2,850.451 848.778,849.432 848.027,848.681L841.351,842.005L830.877,842.005L830.877,881.818ZM838.076,849.51L842.07,853.535C842.442,853.91 842.651,854.417 842.651,854.946L842.651,883.82L842.001,883.82L838.008,879.795C837.636,879.42 837.427,878.913 837.427,878.385L837.427,849.51L838.076,849.51ZM859.982,852.811L860.7,853.534C861.072,853.909 861.281,854.416 861.281,854.945L861.281,880.519L860.563,879.796C860.191,879.421 859.982,878.913 859.982,878.385L859.982,852.811ZM838.013,840.404L842.001,836.416L845.988,840.404C846.364,840.779 846.873,840.99 847.404,840.99L853.124,840.99L853.124,791.67L846.574,791.67L846.574,830.184L845.856,829.46C845.484,829.085 845.276,828.578 845.276,828.049L845.276,803.785L838.726,803.785L838.726,828.049C838.726,828.577 838.517,829.084 838.145,829.459L837.426,830.183L837.426,791.669L830.876,791.669L830.876,840.99L836.596,840.99C837.127,840.99 837.637,840.78 838.012,840.404L838.013,840.404ZM854.606,834.314L861.282,840.99L867.832,840.99L874.507,834.314C875.258,833.563 875.68,832.544 875.68,831.482L875.68,791.669L869.131,791.669L862.455,798.345C861.704,799.096 861.282,800.115 861.282,801.178L861.282,828.874L867.832,828.874L867.832,804.61C867.832,804.082 868.04,803.575 868.413,803.2L869.132,802.476L869.132,828.874L864.557,833.485L860.564,829.46C860.192,829.085 859.983,828.578 859.983,828.05L859.983,791.67L853.433,791.67L853.433,831.482C853.433,832.544 853.855,833.563 854.606,834.314ZM836.133,741.334L836.083,741.334L830.877,741.334L830.877,781.146C830.877,782.209 831.299,783.228 832.05,783.979L838.726,790.655L853.125,790.655L853.125,783.149L845.275,783.149L845.275,754.275C845.276,753.747 845.484,753.24 845.857,752.864L849.85,748.84L853.125,748.84L853.125,741.334L847.918,741.334C847.387,741.334 846.877,741.545 846.502,741.921L842.001,746.422L837.499,741.921C837.136,741.557 836.646,741.347 836.133,741.334ZM859.202,741.334L859.152,741.334L853.432,741.334L853.432,748.839L856.707,748.839L860.701,752.864C861.073,753.238 861.282,753.746 861.282,754.274L861.282,777.713C861.282,778.242 861.073,778.749 860.701,779.124L856.707,783.148L853.432,783.148L853.432,790.654L859.982,790.654L866.658,783.978C867.409,783.227 867.831,782.208 867.831,781.146L867.831,754.274C867.831,753.746 868.04,753.238 868.412,752.864L872.406,748.839L875.68,748.839L875.68,741.334L869.96,741.334C869.429,741.334 868.92,741.544 868.544,741.92L864.556,745.908L860.568,741.92C860.205,741.557 859.715,741.347 859.202,741.334ZM837.427,752.139L838.145,752.863C838.517,753.238 838.726,753.745 838.726,754.273L838.726,779.848L838.008,779.124C837.636,778.749 837.427,778.242 837.427,777.714L837.427,752.139ZM894.888,703.753L894.888,694.191C894.888,693.303 894.536,692.452 893.907,691.824L887.242,685.159L894.888,685.159L894.888,681.071C894.888,680.183 894.536,679.331 893.907,678.704L883.728,668.525C882.473,667.269 880.77,666.564 878.994,666.564L828.338,666.564C826.562,666.564 824.859,667.27 823.604,668.525L812.444,679.685L812.444,685.159L824.99,685.159L831.717,678.483C832.344,677.861 833.192,677.512 834.075,677.512L873.256,677.512C874.139,677.512 874.987,677.86 875.614,678.483L876.824,679.685L840.403,679.685L840.403,690.633L873.256,690.633C874.139,690.633 874.987,690.982 875.614,691.605L876.824,692.806L812.445,692.806L812.445,703.754L894.889,703.754L894.888,703.753ZM737.707,690.633L748.867,701.793C750.122,703.048 751.825,703.753 753.601,703.753L788.846,703.753C790.622,703.753 792.325,703.048 793.58,701.793L804.74,690.633L804.74,685.158L812.447,677.512L812.447,666.563L805.315,666.563L792.194,679.684L792.194,685.158L785.466,691.834C784.84,692.456 783.992,692.806 783.108,692.806L759.34,692.806C758.457,692.806 757.609,692.457 756.982,691.834L750.255,685.158L750.255,679.684L737.134,666.563L730,666.563L730,677.512L737.707,685.158L737.707,690.633Z" style="fill:white;fill-rule:nonzero;"/>
            </g>
        </g>
        <g transform="matrix(1.00067,0,0,1,730,634)">
            <g transform="matrix(3.40234e-17,-0.556017,1.08008,6.61804e-17,-1559.64,2598.27)">
                <path d="M4673,1444L4432,1444L4432,1521L4673,1521L4673,1444ZM4670.6,1445.23L4670.6,1519.77C4670.6,1519.77 4434.4,1519.77 4434.4,1519.77C4434.4,1519.77 4434.4,1445.23 4434.4,1445.23L4670.6,1445.23Z" style="fill:rgb(77,77,77);"/>
            </g>
        </g>
        <g transform="matrix(1.00067,0,0,1,730,634)">
            <g transform="matrix(2.10742e-17,-0.344398,1.08008,6.61804e-17,-1477.92,1609.37)">
                <path d="M4673,1444L4432,1444L4432,1521L4673,1521L4673,1444ZM4669.13,1445.23L4669.13,1519.77C4669.13,1519.77 4435.87,1519.77 4435.87,1519.77C4435.87,1519.77 4435.87,1445.23 4435.87,1445.23L4669.13,1445.23Z" style="fill:rgb(77,77,77);"/>
            </g>
        </g>
        <g transform="matrix(1.00067,0,0,1,730,634)">
            <g transform="matrix(8.93748e-17,-1.46058,1.08009,6.61808e-17,-1477.93,6907.29)">
                <path d="M4673,1444L4432,1444L4432,1521L4673,1521L4673,1444ZM4672.09,1445.23L4672.09,1519.77C4656.58,1519.77 4448.42,1519.77 4432.91,1519.77C4432.91,1519.77 4432.91,1445.23 4432.91,1445.23C4432.91,1445.23 4672.09,1445.23 4672.09,1445.23Z" style="fill:rgb(77,77,77);"/>
            </g>
        </g>
    </g>
</svg>
