<?xml version="1.0" encoding="UTF-8" standalone="no"?>
<!DOCTYPE svg PUBLIC "-//W3C//DTD SVG 1.1//EN" "http://www.w3.org/Graphics/SVG/1.1/DTD/svg11.dtd">
<svg width="100%" height="100%" viewBox="0 0 165 434" version="1.1" xmlns="http://www.w3.org/2000/svg" xmlns:xlink="http://www.w3.org/1999/xlink" xml:space="preserve" xmlns:serif="http://www.serif.com/" style="fill-rule:evenodd;clip-rule:evenodd;stroke-linejoin:round;stroke-miterlimit:2;">
    <g transform="matrix(1,0,0,1,-365,-634)">
        <g transform="matrix(1.00067,0,0,1,365,634)">
            <g transform="matrix(0.999329,0,0,1,-364.755,-634)">
                <path d="M481.574,993.013L481.575,993.012L474.899,999.688C474.148,1000.44 473.726,1001.46 473.726,1002.52L473.726,1029.39C473.726,1029.92 473.517,1030.43 473.145,1030.8L472.426,1031.53L472.426,993.012L465.876,993.012L465.876,1042.33L472.426,1042.33L479.102,1035.66C479.853,1034.91 480.275,1033.89 480.275,1032.83L480.275,1005.95C480.275,1005.43 480.484,1004.92 480.856,1004.54L481.574,1003.82L481.574,1042.33L488.124,1042.33L488.124,993.013L481.574,993.013ZM495.569,1041.75L499.556,1037.76L503.544,1041.75C503.919,1042.12 504.429,1042.33 504.96,1042.33L510.68,1042.33L510.68,993.013L504.13,993.013L504.13,1031.53L503.412,1030.8C503.04,1030.43 502.831,1029.92 502.831,1029.39L502.831,1005.13L496.281,1005.13L496.281,1029.39C496.281,1029.92 496.073,1030.43 495.7,1030.8L494.982,1031.53L494.982,993.012L488.432,993.012L488.432,1042.33L494.152,1042.33C494.683,1042.33 495.192,1042.12 495.568,1041.75L495.569,1041.75ZM480.276,984.492L480.276,950.182L488.125,950.182L488.125,942.676L465.877,942.676L465.877,950.182L473.726,950.182L473.726,984.492L465.877,984.492L465.877,991.998L488.125,991.998L488.125,984.492L480.276,984.492ZM488.432,950.182L504.13,950.182L504.13,951.039L499.556,955.65L496.281,955.65L489.605,962.326C488.855,963.077 488.432,964.095 488.432,965.158L488.432,991.997L510.68,991.997L510.68,984.492L494.982,984.492L494.982,968.591C494.982,968.062 495.191,967.555 495.563,967.18L499.557,963.155L502.002,963.155C502.533,963.155 503.043,962.945 503.418,962.569L510.68,955.306L510.68,942.677L488.432,942.677L488.432,950.182ZM495.569,941.075L499.556,937.088L503.544,941.075C503.919,941.45 504.429,941.662 504.96,941.662L510.68,941.662L510.68,892.341L504.13,892.341L504.13,930.855L503.412,930.131C503.04,929.756 502.831,929.249 502.831,928.721L502.831,904.456L496.281,904.456L496.281,928.72C496.281,929.249 496.073,929.756 495.7,930.131L494.982,930.855L494.982,892.341L488.432,892.341L488.432,941.662L494.152,941.662C494.683,941.662 495.192,941.451 495.568,941.075L495.569,941.075ZM467.05,899.016C466.299,899.768 465.877,900.786 465.877,901.849L465.877,932.153C465.877,933.216 466.299,934.235 467.05,934.986L473.726,941.662L488.125,941.662L488.125,910.726C488.125,909.664 487.703,908.645 486.952,907.894L479.762,900.704L477.001,900.704L477.001,908.209L480.994,912.234C481.366,912.609 481.575,913.116 481.575,913.644L481.575,934.156L477.001,934.156L473.008,930.131C472.636,929.756 472.427,929.249 472.427,928.721L472.427,905.281C472.427,904.753 472.636,904.246 473.008,903.871L477.001,899.846L488.125,899.846L488.125,892.341L473.726,892.341L467.05,899.017L467.05,899.016ZM493.689,842.006L493.639,842.005L488.432,842.005L488.432,881.818C488.432,882.88 488.855,883.899 489.605,884.65L496.281,891.326L510.68,891.326L510.68,883.821L502.831,883.821L502.831,854.946C502.831,854.418 503.04,853.911 503.412,853.536L507.405,849.511L510.68,849.511L510.68,842.005L505.474,842.005C504.942,842.005 504.433,842.217 504.058,842.592L499.556,847.093L495.055,842.592C494.691,842.228 494.202,842.019 493.689,842.006ZM465.877,881.818C465.877,882.88 466.299,883.899 467.05,884.65L473.726,891.326L488.125,891.326L488.125,883.821L484.2,883.821L484.2,851.513C484.2,850.451 483.778,849.432 483.027,848.681L476.351,842.005L465.877,842.005L465.877,881.818ZM473.076,849.51L477.07,853.535C477.442,853.91 477.651,854.417 477.651,854.946L477.651,883.82L477.001,883.82L473.008,879.795C472.636,879.42 472.427,878.913 472.427,878.385L472.427,849.51L473.076,849.51ZM494.982,852.811L495.7,853.534C496.072,853.909 496.281,854.416 496.281,854.945L496.281,880.519L495.563,879.796C495.191,879.421 494.982,878.913 494.982,878.385L494.982,852.811ZM473.013,840.404L477.001,836.416L480.988,840.404C481.364,840.779 481.873,840.99 482.404,840.99L488.124,840.99L488.124,791.67L481.574,791.67L481.574,830.184L480.856,829.46C480.484,829.085 480.276,828.578 480.276,828.049L480.276,803.785L473.726,803.785L473.726,828.049C473.726,828.577 473.517,829.084 473.145,829.459L472.426,830.183L472.426,791.669L465.876,791.669L465.876,840.99L471.596,840.99C472.127,840.99 472.637,840.78 473.012,840.404L473.013,840.404ZM489.606,834.314L496.282,840.99L502.832,840.99L509.507,834.314C510.258,833.563 510.68,832.544 510.68,831.482L510.68,791.669L504.131,791.669L497.455,798.345C496.704,799.096 496.282,800.115 496.282,801.178L496.282,828.874L502.832,828.874L502.832,804.61C502.832,804.082 503.04,803.575 503.413,803.2L504.132,802.476L504.132,828.874L499.557,833.485L495.564,829.46C495.192,829.085 494.983,828.578 494.983,828.05L494.983,791.67L488.433,791.67L488.433,831.482C488.433,832.544 488.855,833.563 489.606,834.314ZM471.133,741.334L471.083,741.334L465.877,741.334L465.877,781.146C465.877,782.209 466.299,783.228 467.05,783.979L473.726,790.655L488.125,790.655L488.125,783.149L480.275,783.149L480.275,754.275C480.276,753.747 480.484,753.24 480.857,752.864L484.85,748.84L488.125,748.84L488.125,741.334L482.918,741.334C482.387,741.334 481.877,741.545 481.502,741.921L477.001,746.422L472.499,741.921C472.136,741.557 471.646,741.347 471.133,741.334ZM494.202,741.334L494.152,741.334L488.432,741.334L488.432,748.839L491.707,748.839L495.701,752.864C496.073,753.238 496.282,753.746 496.282,754.274L496.282,777.713C496.282,778.242 496.073,778.749 495.701,779.124L491.707,783.148L488.432,783.148L488.432,790.654L494.982,790.654L501.658,783.978C502.409,783.227 502.831,782.208 502.831,781.146L502.831,754.274C502.831,753.746 503.04,753.238 503.412,752.864L507.406,748.839L510.68,748.839L510.68,741.334L504.96,741.334C504.429,741.334 503.92,741.544 503.544,741.92L499.556,745.908L495.568,741.92C495.205,741.557 494.715,741.347 494.202,741.334ZM472.427,752.139L473.145,752.863C473.517,753.238 473.726,753.745 473.726,754.273L473.726,779.848L473.008,779.124C472.636,778.749 472.427,778.242 472.427,777.714L472.427,752.139ZM513.994,666.563L440.315,666.563L427.194,679.684L427.194,685.158L420.466,691.834C419.84,692.456 418.992,692.806 418.108,692.806L394.34,692.806C393.457,692.806 392.609,692.457 391.982,691.834L385.255,685.158L385.255,679.684L372.134,666.563L365,666.563L365,677.512L372.707,685.158L372.707,690.633L383.867,701.793C385.122,703.048 386.825,703.753 388.601,703.753L423.846,703.753C425.622,703.753 427.325,703.048 428.58,701.793L439.74,690.633L439.74,685.158L447.447,677.512L447.447,677.512L508.256,677.512C509.14,677.512 509.988,677.86 510.614,678.483L511.825,679.685L447.445,679.685L447.445,690.633L458.604,701.793C459.859,703.048 461.563,703.753 463.338,703.753L529.888,703.753L529.888,692.805L469.076,692.805C468.193,692.805 467.345,692.456 466.718,691.833L465.507,690.632L529.888,690.632L529.888,679.684L518.728,668.524C517.473,667.269 515.77,666.563 513.994,666.563Z" style="fill:white;fill-rule:nonzero;"/>
            </g>
        </g>
        <g transform="matrix(1.00067,0,0,1,365,634)">
            <g transform="matrix(3.40234e-17,-0.556017,1.08008,6.61804e-17,-1559.64,2598.27)">
                <path d="M4673,1444L4432,1444L4432,1521L4673,1521L4673,1444ZM4670.6,1445.23L4670.6,1519.77C4670.6,1519.77 4434.4,1519.77 4434.4,1519.77C4434.4,1519.77 4434.4,1445.23 4434.4,1445.23L4670.6,1445.23Z" style="fill:rgb(77,77,77);"/>
            </g>
        </g>
        <g transform="matrix(1.00067,0,0,1,365,634)">
            <g transform="matrix(2.10742e-17,-0.344398,1.08008,6.61804e-17,-1477.92,1609.37)">
                <path d="M4673,1444L4432,1444L4432,1521L4673,1521L4673,1444ZM4669.13,1445.23L4669.13,1519.77C4669.13,1519.77 4435.87,1519.77 4435.87,1519.77C4435.87,1519.77 4435.87,1445.23 4435.87,1445.23L4669.13,1445.23Z" style="fill:rgb(77,77,77);"/>
            </g>
        </g>
        <g transform="matrix(1.00067,0,0,1,365,634)">
            <g transform="matrix(8.93748e-17,-1.46058,1.08009,6.61808e-17,-1477.93,6907.29)">
                <path d="M4673,1444L4432,1444L4432,1521L4673,1521L4673,1444ZM4672.09,1445.23L4672.09,1519.77C4672.09,1519.77 4432.91,1519.77 4432.91,1519.77C4432.91,1519.77 4432.91,1445.23 4432.91,1445.23C4448.99,1445.23 4672.09,1445.23 4672.09,1445.23Z" style="fill:rgb(77,77,77);"/>
            </g>
        </g>
    </g>
</svg>
